<svg role="img" viewBox="0 0 24 24" xmlns="http://www.w3.org/2000/svg"><title>Amplitude</title><path fill-rule="evenodd" d="M10.634 5.675C10.562 5.603 10.491 5.531 10.419 5.531C10.347 5.531 10.311 5.567 10.239 5.603C9.628 6.07 8.802 8.119 8.119 10.814H8.73C9.916 10.814 11.173 10.85 12.395 10.85C12.072 9.628 11.784 8.55 11.497 7.723C11.066 6.466 10.814 5.927 10.634 5.675Z"/><path fill-rule="evenodd" d="M12 0.5C5.639 0.5 0.5 5.639 0.5 12C0.5 18.361 5.639 23.5 12 23.5C18.361 23.5 23.5 18.361 23.5 12C23.5 5.639 18.361 0.5 12 0.5ZM20.266 12.216C20.266 12.216 20.23 12.252 20.23 12.252H20.194H20.158C20.086 12.288 19.978 12.323 19.87 12.323H14.444C14.48 12.503 14.552 12.719 14.587 12.934C14.875 14.228 15.666 17.642 16.528 17.642H16.564C17.211 17.642 17.57 16.708 18.289 14.623V14.588C18.397 14.264 18.541 13.869 18.684 13.473L18.72 13.366C18.756 13.222 18.9 13.15 19.044 13.186C19.187 13.222 19.259 13.366 19.223 13.509L19.188 13.653C19.116 13.905 19.044 14.228 18.936 14.623C18.505 16.456 17.822 19.188 16.133 19.188C15.019 19.188 14.372 17.427 14.084 16.672C13.545 15.27 13.15 13.761 12.791 12.323H7.759L6.717 15.666C6.573 15.917 6.25 15.989 5.998 15.845C5.855 15.738 5.747 15.594 5.747 15.414V15.378L5.819 15.019C5.962 14.156 6.142 13.258 6.322 12.359H4.202C3.806 12.287 3.519 11.964 3.519 11.569C3.519 11.173 3.806 10.85 4.166 10.778C4.237 10.778 4.345 10.778 4.417 10.778H4.525C5.208 10.778 5.891 10.814 6.681 10.814C7.795 6.322 9.053 4.058 10.491 4.022C12 4.022 13.15 7.508 14.048 10.886C15.917 10.922 17.894 10.994 19.798 11.102H19.87C19.906 11.102 19.942 11.102 19.978 11.102C20.302 11.173 20.517 11.497 20.445 11.82C20.445 12 20.373 12.108 20.266 12.216Z"/></svg>
