<svg role="img" viewBox="0 0 24 24" xmlns="http://www.w3.org/2000/svg"><title>LogRocket</title><path fill-rule="evenodd" d="M9.425 3.092C10.069 2.061 10.925 1.178 11.934 0.5C12.931 1.162 13.775 2.029 14.412 3.041C16.093 5.373 16.941 8.201 16.819 11.073C17.342 11.494 17.88 11.899 18.394 12.329C19.131 12.986 19.474 13.977 19.301 14.949C19.053 16.146 18.815 17.346 18.553 18.54C18.379 19.062 17.813 19.345 17.291 19.17C17.2 19.139 17.114 19.096 17.035 19.041C16.191 18.364 15.369 17.663 14.529 16.984C13.88 17.592 13.041 17.956 12.154 18.015C11.131 18.065 10.13 17.705 9.374 17.013C8.77 17.458 8.209 17.992 7.618 18.469C7.359 18.723 7.071 18.945 6.759 19.131C6.245 19.33 5.667 19.075 5.468 18.562C5.458 18.537 5.45 18.512 5.442 18.486C5.172 17.318 4.89 16.154 4.628 14.985C4.425 13.969 4.791 12.923 5.584 12.256C6.043 11.886 6.508 11.523 6.976 11.163C7.106 11.097 7.04 10.948 7.047 10.834C6.985 8.065 7.821 5.35 9.429 3.096M10.256 6.711C9.646 7.498 9.719 8.618 10.429 9.318C11.245 10.115 12.54 10.142 13.388 9.379C13.992 8.835 14.2 7.976 13.911 7.216C13.618 6.485 12.938 5.979 12.153 5.909C11.425 5.833 10.71 6.136 10.256 6.71"/><path d="M9.135 19.46C9.155 19.187 9.392 18.981 9.665 19C9.737 19.006 9.807 19.026 9.871 19.061C11.175 19.692 12.697 19.692 14.002 19.061C14.245 18.928 14.55 19.018 14.682 19.261C14.712 19.314 14.731 19.371 14.739 19.431C14.743 20.162 14.743 20.893 14.739 21.625C14.712 21.897 14.469 22.095 14.197 22.067C14.114 22.059 14.035 22.03 13.966 21.983C13.747 21.797 13.55 21.588 13.339 21.392C13.005 22.018 12.691 22.652 12.354 23.276C12.201 23.507 11.89 23.569 11.66 23.416C11.606 23.38 11.559 23.335 11.523 23.281C11.185 22.656 10.873 22.018 10.532 21.393C10.325 21.59 10.127 21.798 9.907 21.984C9.681 22.138 9.372 22.079 9.218 21.852C9.172 21.784 9.143 21.704 9.135 21.621C9.129 20.9 9.135 20.179 9.135 19.457"/><path d="M11.918 8.927C12.472 8.94 12.931 8.501 12.944 7.948V7.941C12.935 7.388 12.479 6.946 11.926 6.955L11.918 6.956C11.365 6.943 10.906 7.382 10.894 7.935L10.894 7.941C10.903 8.495 11.36 8.936 11.913 8.927H11.918Z"/></svg>
