<svg role="img" viewBox="0 0 24 24" xmlns="http://www.w3.org/2000/svg"><title>Pirsch</title><path d="M5.179 8.027V14.859L5.651 14.819C8.908 14.547 11.449 12.182 11.92 8.976C12.46 5.304 9.874 1.837 6.185 1.291C5.855 1.24 5.497 1.2 5.384 1.2H5.179V8.027Z"/><path d="M16.093 1.808C15.803 1.854 15.257 2.075 14.967 2.263C13.432 3.28 13.29 5.514 14.694 6.748C16.326 8.186 18.963 7.254 19.338 5.099C19.668 3.195 17.997 1.501 16.093 1.808Z"/><path d="M18.111 9.198C14.939 9.596 12.54 11.915 12.08 15.024C11.602 18.264 13.58 21.436 16.718 22.459C17.212 22.618 18.213 22.8 18.616 22.8H18.821V15.979V9.158L18.554 9.164C18.4 9.169 18.207 9.186 18.111 9.198Z"/><path d="M6.998 16.587C6.708 16.633 6.162 16.854 5.872 17.042C4.338 18.059 4.196 20.293 5.6 21.527C7.231 22.965 9.868 22.033 10.244 19.878C10.573 17.974 8.902 16.28 6.998 16.587Z"/></svg>
