<svg role="img" viewBox="0 0 24 24" xmlns="http://www.w3.org/2000/svg"><title>Segment</title><path d="M14.83 15.907H1.604C0.997 15.907 0.5 15.41 0.5 14.803C0.5 14.195 0.997 13.698 1.604 13.698H14.83C15.438 13.698 15.935 14.195 15.935 14.803C15.935 15.41 15.438 15.907 14.83 15.907Z"/><path d="M12.014 22.672C10.937 22.672 9.86 22.506 8.839 22.202C8.259 22.009 7.927 21.402 8.121 20.822C8.314 20.242 8.921 19.911 9.501 20.104C10.302 20.352 11.158 20.49 12.014 20.49C15.769 20.49 19.027 18.088 20.104 14.499C20.269 13.919 20.905 13.588 21.484 13.753C22.064 13.919 22.396 14.554 22.23 15.134C20.822 19.634 16.735 22.672 12.014 22.672Z"/><path d="M22.396 10.302H9.17C8.562 10.302 8.065 9.805 8.065 9.197C8.065 8.59 8.562 8.093 9.17 8.093H22.396C23.003 8.093 23.5 8.59 23.5 9.197C23.5 9.805 23.003 10.302 22.396 10.302Z"/><path d="M2.847 10.302C2.736 10.302 2.626 10.274 2.516 10.247C1.936 10.081 1.604 9.446 1.77 8.866C3.178 4.366 7.265 1.328 12.014 1.328C13.091 1.328 14.167 1.494 15.189 1.798C15.769 1.991 16.1 2.598 15.907 3.178C15.714 3.758 15.106 4.089 14.526 3.896C13.726 3.648 12.87 3.51 12.014 3.51C8.259 3.51 5.001 5.912 3.924 9.501C3.758 9.998 3.316 10.302 2.847 10.302H2.847Z"/><circle cx="18.558" cy="5.001" r="1.104"/><circle cx="5.442" cy="19.027" r="1.104"/></svg>
