<svg role="img" viewBox="0 0 24 24" xmlns="http://www.w3.org/2000/svg"><title>Cohere</title><path d="M7.952 14.208C8.565 14.208 9.792 14.177 11.509 13.472C13.503 12.644 17.428 11.172 20.28 9.639C22.273 8.565 23.132 7.155 23.132 5.253C23.132 2.647 21.016 0.5 18.379 0.5H7.339C3.567 0.5 0.5 3.567 0.5 7.339C0.5 11.111 3.383 14.208 7.952 14.208Z"/><path d="M9.823 18.9C9.823 17.06 10.927 15.373 12.644 14.668L16.109 13.227C19.636 11.785 23.5 14.361 23.5 18.164C23.5 21.108 21.108 23.5 18.164 23.5H14.392C11.877 23.5 9.823 21.445 9.823 18.9Z"/><path d="M4.456 15.097C2.279 15.097 0.5 16.876 0.5 19.053V19.575C0.5 21.721 2.279 23.5 4.456 23.5C6.633 23.5 8.412 21.721 8.412 19.544V19.023C8.381 16.876 6.633 15.097 4.456 15.097V15.097Z"/></svg>
