<?xml version="1.0" encoding="UTF-8"?>
<!DOCTYPE svg PUBLIC "-//W3C//DTD SVG 1.1//EN" "http://www.w3.org/Graphics/SVG/1.1/DTD/svg11.dtd">
<svg xmlns="http://www.w3.org/2000/svg" version="1.1" width="674px" height="479px" viewBox="0 0 674 479" style="shape-rendering:geometricPrecision; text-rendering:geometricPrecision; image-rendering:optimizeQuality; fill-rule:evenodd; clip-rule:evenodd" xmlns:xlink="http://www.w3.org/1999/xlink">
<g><path style="opacity:1" fill="#010101" d="M 542.5,205.5 C 532.119,211.246 521.786,216.912 511.5,222.5C 510.027,223.072 508.693,223.905 507.5,225C 507.833,225.333 508.167,225.667 508.5,226C 504.205,226.584 501.205,228.917 499.5,233C 498.551,233.617 497.718,233.451 497,232.5C 495.47,233.92 493.637,234.92 491.5,235.5C 491.068,239.13 489.901,242.464 488,245.5C 485.574,257.27 483.574,268.937 482,280.5C 481.5,281 481,281.5 480.5,282C 482.774,282.47 484.774,283.47 486.5,285C 491.025,289.256 495.191,293.756 499,298.5C 500.447,304.73 503.447,310.064 508,314.5C 507.288,333.142 506.622,351.808 506,370.5C 502.284,401.339 490.618,428.673 471,452.5C 462.198,461.641 452.031,468.807 440.5,474C 436.339,475.737 432.005,476.737 427.5,477C 403.281,478.704 379.281,477.371 355.5,473C 345.973,471.485 338.14,466.985 332,459.5C 327.822,452.477 324.155,445.143 321,437.5C 306.807,425.261 291.474,423.594 275,432.5C 267.938,430.654 260.605,430.321 253,431.5C 236.558,426.062 219.724,424.396 202.5,426.5C 194.167,426.5 185.833,426.5 177.5,426.5C 161.511,426.739 145.677,428.405 130,431.5C 113.696,431.705 98.6962,427.372 85,418.5C 81.1855,417.057 78.0188,414.223 75.5,410C 74.1268,409.125 72.6268,408.625 71,408.5C 69.1595,409.125 67.3261,409.292 65.5,409C 63.5,407.333 61.5,405.667 59.5,404C 43.1235,400.617 33.2902,391.117 30,375.5C 27.9189,365.683 26.0855,355.849 24.5,346C 25.9732,343.552 27.3065,341.052 28.5,338.5C 30.2663,335.812 31.933,332.979 33.5,330C 32.8333,329.667 32.1667,329.333 31.5,329C 35.2533,320.075 38.42,310.908 41,301.5C 44.8134,289.351 52.8134,281.684 65,278.5C 66.4219,279.205 67.7553,279.539 69,279.5C 77.9913,276.965 86.9913,276.965 96,279.5C 96.7247,278.941 97.5581,278.608 98.5,278.5C 105.908,280.84 113.241,283.173 120.5,285.5C 112.369,286.301 105.036,284.301 98.5,279.5C 96.3392,280.035 94.3392,280.868 92.5,282C 93.1905,283.067 93.6905,284.234 94,285.5C 95.739,285.434 97.5723,284.767 99.5,283.5C 106.243,285.913 113.576,287.747 121.5,289C 127.756,291.988 128.09,291.155 122.5,286.5C 130.023,288.593 137.356,291.259 144.5,294.5C 154.17,293.108 163.503,290.608 172.5,287C 177.397,284.392 182.063,281.559 186.5,278.5C 187.931,278.119 188.764,277.119 189,275.5C 189.497,273.19 189.663,270.857 189.5,268.5C 192.187,268.664 194.854,268.497 197.5,268C 196.273,266.413 196.606,265.079 198.5,264C 203.788,262.049 209.121,260.549 214.5,259.5C 214.238,258.022 214.571,256.689 215.5,255.5C 216.386,256.325 216.719,257.325 216.5,258.5C 219.187,258.664 221.854,258.497 224.5,258C 227.999,255.086 231.666,252.419 235.5,250C 238.235,250.198 240.901,250.031 243.5,249.5C 242.359,248.575 242.359,247.741 243.5,247C 248.282,246.881 252.949,246.215 257.5,245C 255.071,244.549 254.904,243.715 257,242.5C 258.194,243.43 259.527,244.097 261,244.5C 262.3,243.293 263.8,242.626 265.5,242.5C 265.5,241.5 265.5,240.5 265.5,239.5C 272.542,241.255 279.208,240.422 285.5,237C 290.864,236.829 296.198,236.329 301.5,235.5C 304.263,234.896 306.597,233.562 308.5,231.5C 311.962,232.138 315.295,231.472 318.5,229.5C 317.637,225.594 315.304,223.094 311.5,222C 308.315,217.296 304.648,213.796 300.5,211.5C 300.709,210.914 301.043,210.414 301.5,210C 296.952,207.389 293.952,203.556 292.5,198.5C 291.808,199.025 291.308,199.692 291,200.5C 289.956,198.285 289.29,195.952 289,193.5C 286.961,191.853 285.127,190.02 283.5,188C 282.518,185.293 282.518,182.293 283.5,179C 282.095,177.023 281.095,174.857 280.5,172.5C 281.213,168.676 281.88,164.843 282.5,161C 282.156,159.635 281.489,158.468 280.5,157.5C 283.166,146.506 283.166,135.506 280.5,124.5C 281.14,109.828 281.473,95.1617 281.5,80.5C 279.792,71.0022 278.126,61.5022 276.5,52C 277.213,46.524 277.713,41.024 278,35.5C 281.736,33.5573 282.236,31.0573 279.5,28C 280.899,27.4054 282.232,27.5721 283.5,28.5C 290.002,34.2446 295.335,40.4113 299.5,47C 300.328,48.9923 301.661,50.4923 303.5,51.5C 305.703,55.8848 308.703,59.7181 312.5,63C 312.167,63.3333 311.833,63.6667 311.5,64C 314.806,67.7799 317.472,71.4465 319.5,75C 320.701,75.9025 321.535,77.0692 322,78.5C 322.667,79.8333 323.333,79.8333 324,78.5C 324.082,81.7481 325.582,84.0814 328.5,85.5C 333.582,96.0046 339.415,106.005 346,115.5C 350.96,126.379 355.126,137.546 358.5,149C 361.353,150.751 362.02,153.084 360.5,156C 362.481,156.605 362.815,157.605 361.5,159C 362.376,160.586 363.376,162.086 364.5,163.5C 363.217,167.456 364.551,170.956 368.5,174C 368.671,180.419 370.504,186.586 374,192.5C 380.301,203.128 388.301,212.128 398,219.5C 400.5,219 403,218.5 405.5,218C 413.464,214.242 420.631,210.409 427,206.5C 452.91,163.011 483.91,124.345 520,90.5C 526.681,81.8224 534.015,73.8224 542,66.5C 543.039,64.2537 544.206,62.087 545.5,60C 545.043,59.586 544.709,59.086 544.5,58.5C 547.817,56.3469 550.817,53.8469 553.5,51C 553.167,50.6667 552.833,50.3333 552.5,50C 562.79,38.7796 574.624,29.6129 588,22.5C 588.333,22.8333 588.667,23.1667 589,23.5C 591.333,21.8333 593.667,20.1667 596,18.5C 598.582,19.3118 600.749,18.4785 602.5,16C 610.395,13.3857 618.062,10.2191 625.5,6.5C 628.48,7.01059 631.48,6.51059 634.5,5C 643.299,3.55534 651.632,4.88867 659.5,9C 662.467,12.8033 664.801,16.97 666.5,21.5C 664.859,30.9422 661.193,39.4422 655.5,47C 648.894,61.9057 642.561,76.5724 636.5,91C 630.43,100.282 626.597,110.115 625,120.5C 622.44,125.726 619.106,130.392 615,134.5C 613.333,137.833 611.667,141.167 610,144.5C 609.333,145.833 608.667,145.833 608,144.5C 603.962,150.22 600.295,156.22 597,162.5C 595.16,161.167 594.66,161.334 595.5,163C 594.21,165.342 592.21,167.676 589.5,170C 588.5,170.333 587.5,170.667 586.5,171C 581.692,177.408 575.692,182.408 568.5,186C 568.167,187 567.833,188 567.5,189C 558.834,193.999 550.501,199.499 542.5,205.5 Z M 288.5,110.5 C 293.261,112.715 297.927,115.215 302.5,118C 303.274,120.405 303.774,122.905 304,125.5C 304.333,124.5 304.667,123.5 305,122.5C 304.505,126.197 304.671,129.697 305.5,133C 301.831,135.11 301.498,137.777 304.5,141C 304.089,142.144 303.756,143.311 303.5,144.5C 304.996,151.866 306.163,159.199 307,166.5C 305.125,162.122 302.625,158.122 299.5,154.5C 296.695,148.565 294.195,142.565 292,136.5C 290.072,127.872 288.906,119.205 288.5,110.5 Z M 312.5,175.5 C 313.077,174.227 313.743,174.227 314.5,175.5C 314.03,176.463 313.363,176.463 312.5,175.5 Z M 292.5,178.5 C 294.017,178.511 295.184,179.177 296,180.5C 297.24,183.412 298.906,186.079 301,188.5C 306.342,192.676 311.176,197.343 315.5,202.5C 317.664,203.414 319.664,204.581 321.5,206C 320.099,208.711 318.099,209.044 315.5,207C 316.167,206.667 316.833,206.333 317.5,206C 307.629,202.129 300.796,195.296 297,185.5C 296.667,186.167 296.333,186.833 296,187.5C 295.385,185.884 294.385,184.551 293,183.5C 292.506,181.866 292.34,180.199 292.5,178.5 Z M 332.5,205.5 C 333.239,205.369 333.906,205.536 334.5,206C 333.213,207.41 332.046,208.91 331,210.5C 330.878,208.718 331.378,207.052 332.5,205.5 Z M 322.5,211.5 C 323.077,210.227 323.743,210.227 324.5,211.5C 324.03,212.463 323.363,212.463 322.5,211.5 Z"/></g>
<g><path style="opacity:1" fill="#f8f8f8" d="M 624.5,41.5 C 626.205,42.5353 627.872,42.5353 629.5,41.5C 631.478,48.0341 632.811,54.7007 633.5,61.5C 630.296,64.7707 627.63,68.4374 625.5,72.5C 626.61,74.4959 626.276,76.3292 624.5,78C 626.686,78.6036 626.852,79.7703 625,81.5C 623.853,80.5419 622.853,80.8753 622,82.5C 621.185,84.6228 620.185,86.6228 619,88.5C 618.607,90.1992 619.107,91.6992 620.5,93C 619.561,94.9439 618.227,96.6106 616.5,98C 617.517,99.0495 617.684,100.216 617,101.5C 616.667,101.167 616.333,100.833 616,100.5C 613.457,104.977 611.623,109.644 610.5,114.5C 609.325,114.281 608.325,114.614 607.5,115.5C 605.158,120.837 601.491,124.837 596.5,127.5C 596.5,128.5 596.5,129.5 596.5,130.5C 591.953,132.042 588.62,135.042 586.5,139.5C 587,140.5 587.5,141.5 588,142.5C 588.333,142.167 588.667,141.833 589,141.5C 589.096,144.451 589.929,147.118 591.5,149.5C 573.725,159.106 558.892,172.106 547,188.5C 544.54,189.958 542.373,191.791 540.5,194C 522.167,202.636 505.834,213.969 491.5,228C 488.294,228.296 485.128,228.796 482,229.5C 479.632,231.369 477.132,233.036 474.5,234.5C 473.959,232.477 474.459,230.477 476,228.5C 482.799,227.013 488.966,224.18 494.5,220C 494.167,219.667 493.833,219.333 493.5,219C 496.369,215.796 499.535,212.963 503,210.5C 506.055,203.594 511.222,199.594 518.5,198.5C 518.357,196.738 518.691,195.071 519.5,193.5C 524.974,191.697 528.307,188.03 529.5,182.5C 534.504,182.509 536.504,180.175 535.5,175.5C 532.575,178.352 529.242,179.018 525.5,177.5C 520.587,182.283 514.921,185.45 508.5,187C 519.22,178.613 530.22,170.613 541.5,163C 547.212,156.621 553.545,150.954 560.5,146C 566.837,138.465 573.503,131.298 580.5,124.5C 583.31,119.71 585.977,114.877 588.5,110C 587.833,109.667 587.167,109.333 586.5,109C 589.332,104.508 592.166,100.008 595,95.5C 595.75,94.8742 596.584,94.3742 597.5,94C 597.167,93.6667 596.833,93.3333 596.5,93C 596.981,89.9815 597.981,87.1482 599.5,84.5C 598.975,83.8076 598.308,83.3076 597.5,83C 599.172,79.9639 600.839,76.9639 602.5,74C 600.101,72.0404 599.935,69.8737 602,67.5C 604.881,62.3103 608.381,57.6437 612.5,53.5C 614.113,52.5726 615.779,51.7393 617.5,51C 616.549,50.2825 616.383,49.4491 617,48.5C 619.744,47.3677 622.244,45.8677 624.5,44C 623.402,43.2303 623.402,42.397 624.5,41.5 Z"/></g>
<g><path style="opacity:1" fill="#000000" d="M 303.5,50.5 C 304.833,51.1667 304.833,51.1667 303.5,50.5 Z"/></g>
<g><path style="opacity:1" fill="#f3f3f3" d="M 521.5,123.5 C 523.341,114.93 522.674,106.596 519.5,98.5C 524.886,91.9361 529.719,84.9361 534,77.5C 541.816,71.6821 548.983,65.1821 555.5,58C 559.718,55.7177 563.384,52.7177 566.5,49C 575.45,45.0253 576.283,45.8586 569,51.5C 568.586,51.0426 568.086,50.7093 567.5,50.5C 566.365,52.7067 565.699,55.0401 565.5,57.5C 559.979,59.0275 556.979,62.6942 556.5,68.5C 554.692,68.4914 553.025,68.9914 551.5,70C 551.833,70.3333 552.167,70.6667 552.5,71C 549.048,72.5037 545.881,74.337 543,76.5C 536.11,90.9439 529.777,105.611 524,120.5C 523.148,121.571 522.315,122.571 521.5,123.5 Z"/></g>
<g><path style="opacity:1" fill="#e2e2e2" d="M 637.5,75.5 C 638.404,76.209 638.737,77.209 638.5,78.5C 637.022,78.762 635.689,78.4287 634.5,77.5C 635.781,77.9839 636.781,77.3173 637.5,75.5 Z"/></g>
<g><path style="opacity:1" fill="#f9faf9" d="M 632.5,79.5 C 633.873,79.3433 635.207,79.51 636.5,80C 635,81.5 633.5,83 632,84.5C 632.019,82.8925 632.185,81.2259 632.5,79.5 Z"/></g>
<g><path style="opacity:1" fill="#f5f5f5" d="M 207.5,290.5 C 206.153,289.972 204.819,289.805 203.5,290C 204.821,291.545 204.488,292.711 202.5,293.5C 201.012,291.729 199.179,290.396 197,289.5C 196.125,292.215 194.292,293.548 191.5,293.5C 192.085,290.739 191.085,289.073 188.5,288.5C 185.991,289.836 183.324,290.67 180.5,291C 179.299,291.903 178.465,293.069 178,294.5C 177.374,292.009 176.541,292.009 175.5,294.5C 174.5,294 173.5,293.5 172.5,293C 174.046,290.743 175.712,288.576 177.5,286.5C 188.67,284.315 197.004,278.315 202.5,268.5C 205.803,267.56 209.136,266.727 212.5,266C 221.833,261.333 231.167,256.667 240.5,252C 245.167,251.667 249.833,251.333 254.5,251C 259.048,250.06 263.048,248.06 266.5,245C 273.841,245.235 280.841,243.901 287.5,241C 297.397,238.632 307.397,236.632 317.5,235C 323.164,232.668 326.664,228.501 328,222.5C 333.313,217.207 337.646,211.207 341,204.5C 343,197.167 343,189.833 341,182.5C 337.408,175.646 333.075,169.313 328,163.5C 326.664,160.991 325.83,158.324 325.5,155.5C 326.398,149.025 327.064,142.525 327.5,136C 326.575,127.844 326.408,119.677 327,111.5C 330.053,110.11 332.053,107.777 333,104.5C 333.751,111.666 336.418,117.999 341,123.5C 344.131,131.703 346.465,140.036 348,148.5C 347.5,149 347,149.5 346.5,150C 351.783,152.201 352.116,154.034 347.5,155.5C 347.37,158.384 347.87,161.384 349,164.5C 350.387,166.301 351.887,166.968 353.5,166.5C 353.069,167.293 352.735,168.127 352.5,169C 357.245,175.557 360.245,182.89 361.5,191C 357.597,192.708 356.597,195.041 358.5,198C 358.18,199.653 357.18,200.653 355.5,201C 359.826,201.396 364.16,202.063 368.5,203C 366.112,203.303 363.945,204.137 362,205.5C 360.391,204.85 358.891,205.35 357.5,207C 362.543,206.003 367.543,206.336 372.5,208C 373.167,208.667 373.833,209.333 374.5,210C 371.242,210.212 368.076,210.712 365,211.5C 364.667,211.167 364.333,210.833 364,210.5C 363.535,211.931 362.701,213.097 361.5,214C 363.5,214.5 365.5,215 367.5,215.5C 370.833,215.167 374.167,214.833 377.5,214.5C 379.606,215.43 381.606,216.596 383.5,218C 380.607,218.267 377.607,218.1 374.5,217.5C 372.556,218.189 370.556,218.689 368.5,219C 371.423,220.71 374.423,220.877 377.5,219.5C 378.711,220.274 378.711,221.107 377.5,222C 375.287,222.626 373.12,222.459 371,221.5C 369.739,221.759 368.739,222.426 368,223.5C 367.586,223.043 367.086,222.709 366.5,222.5C 363.102,223.104 359.769,223.937 356.5,225C 358.957,226.512 358.957,227.846 356.5,229C 355.101,229.595 353.768,229.428 352.5,228.5C 347.685,230.458 343.019,232.125 338.5,233.5C 337.833,233.167 337.167,232.833 336.5,232.5C 335.107,233.863 333.441,234.696 331.5,235C 333.087,235.862 334.754,236.529 336.5,237C 337.833,238 337.833,239 336.5,240C 332.023,239.696 327.69,239.862 323.5,240.5C 319.766,239.143 316.099,238.81 312.5,239.5C 312.853,241.635 312.02,242.968 310,243.5C 309.619,242.518 308.786,241.852 307.5,241.5C 302.793,243.477 297.96,245.144 293,246.5C 290.291,245.294 288.625,246.294 288,249.5C 287.085,248.672 286.419,247.672 286,246.5C 278.719,250.421 270.886,252.921 262.5,254C 260.718,254.814 259.218,255.981 258,257.5C 256.984,256.366 256.317,256.699 256,258.5C 255.517,257.552 255.351,256.552 255.5,255.5C 249.097,256.714 242.764,258.214 236.5,260C 235.874,260.75 235.374,261.584 235,262.5C 231.424,261.8 229.591,263.467 229.5,267.5C 226.955,267.151 224.955,267.984 223.5,270C 225.833,270.333 228.167,270.667 230.5,271C 229.273,272.587 229.606,273.921 231.5,275C 228.588,277.673 228.921,279.84 232.5,281.5C 236.803,274.574 237.97,274.908 236,282.5C 235.667,282.167 235.333,281.833 235,281.5C 232.853,282.113 230.686,282.779 228.5,283.5C 226.716,286.652 224.216,287.652 221,286.5C 220.374,288.991 219.541,288.991 218.5,286.5C 217.585,287.328 216.919,288.328 216.5,289.5C 217.326,290.451 217.492,291.451 217,292.5C 215.293,291.862 213.46,291.862 211.5,292.5C 211.363,287.323 210.03,286.657 207.5,290.5 Z"/></g>
<g><path style="opacity:1" fill="#d5d5d5" d="M 521.5,123.5 C 521.509,125.308 521.009,126.975 520,128.5C 519.401,126.465 519.901,124.799 521.5,123.5 Z"/></g>
<g><path style="opacity:1" fill="#000000" d="M 279.5,162.5 C 280.598,163.601 280.765,164.934 280,166.5C 279.51,165.207 279.343,163.873 279.5,162.5 Z"/></g>
<g><path style="opacity:1" fill="#f8f8f8" d="M 456.5,229.5 C 456.249,231.17 455.582,232.67 454.5,234C 456.107,235.049 456.773,236.549 456.5,238.5C 454.799,238.966 453.299,238.966 452,238.5C 450.468,241.912 450.635,245.079 452.5,248C 452.167,248.333 451.833,248.667 451.5,249C 453.481,249.605 453.815,250.605 452.5,252C 454.022,253.328 455.689,253.162 457.5,251.5C 458.831,252.592 459.664,253.926 460,255.5C 461.922,252.585 463.756,249.585 465.5,246.5C 467.518,245.187 468.685,245.853 469,248.5C 472.152,244.215 475.318,239.881 478.5,235.5C 481.028,233.933 483.694,233.1 486.5,233C 484.044,235.408 482.211,238.241 481,241.5C 473.556,261.261 473.723,280.928 481.5,300.5C 483.756,305.425 485.922,310.425 488,315.5C 489.939,317.194 491.772,319.027 493.5,321C 491.994,324.17 490.494,327.337 489,330.5C 487.951,329.483 486.784,329.316 485.5,330C 487.569,330.324 487.902,331.158 486.5,332.5C 487.567,334.559 488.9,336.392 490.5,338C 488.731,339.019 487.064,339.186 485.5,338.5C 484.386,339.723 484.219,341.056 485,342.5C 486.498,346.375 488.331,346.875 490.5,344C 490.167,343.667 489.833,343.333 489.5,343C 490.833,342.667 492.167,342.333 493.5,342C 492.112,341.111 492.278,340.611 494,340.5C 495.174,341.544 496.341,342.544 497.5,343.5C 496.725,345.612 496.725,347.612 497.5,349.5C 497.637,352.812 496.637,355.646 494.5,358C 495.451,358.718 495.617,359.551 495,360.5C 491.721,357.879 488.554,358.045 485.5,361C 490.167,365 489.5,367.667 483.5,369C 484.574,372.159 486.574,374.493 489.5,376C 486.953,375.661 484.453,374.827 482,373.5C 481.5,373.833 481,374.167 480.5,374.5C 481.167,375.167 481.833,375.833 482.5,376.5C 482.167,376.833 481.833,377.167 481.5,377.5C 478.105,372.967 473.772,369.633 468.5,367.5C 469.167,367.167 469.833,366.833 470.5,366.5C 472.694,367.94 475.027,368.773 477.5,369C 476.257,367.846 475.257,366.512 474.5,365C 476.619,364.658 476.953,363.825 475.5,362.5C 474.244,362.904 473.077,363.571 472,364.5C 469.459,363.336 466.959,363.503 464.5,365C 466.412,366.2 467.745,367.867 468.5,370C 469.448,370.483 470.448,370.649 471.5,370.5C 471.343,371.873 471.51,373.207 472,374.5C 473.483,372.054 474.649,372.388 475.5,375.5C 475.291,376.086 474.957,376.586 474.5,377C 470.352,377.669 466.352,377.169 462.5,375.5C 461.5,375.833 460.5,376.167 459.5,376.5C 460.995,376.478 462.662,376.811 464.5,377.5C 463.335,378.584 462.002,379.417 460.5,380C 466.09,379.519 470.423,381.519 473.5,386C 477.223,386.434 477.39,387.268 474,388.5C 471.651,386.812 469.318,385.146 467,383.5C 466.055,383.905 465.388,384.572 465,385.5C 464.02,382.668 462.02,381.002 459,380.5C 458.5,381 458,381.5 457.5,382C 461.375,383.347 461.375,384.514 457.5,385.5C 458.729,386.281 460.062,386.781 461.5,387C 460.5,387.833 459.5,388.667 458.5,389.5C 461.012,390.795 463.679,391.461 466.5,391.5C 465.323,393.032 463.989,394.532 462.5,396C 463.167,396.667 463.833,397.333 464.5,398C 461.417,399.918 458.083,401.251 454.5,402C 457.167,402.667 459.833,403.333 462.5,404C 462.043,404.414 461.709,404.914 461.5,405.5C 463.763,406.65 466.096,407.65 468.5,408.5C 462.928,409.826 457.428,408.826 452,405.5C 448.224,407.393 444.391,408.06 440.5,407.5C 439.167,407.5 437.833,407.5 436.5,407.5C 435.033,408.292 433.7,408.292 432.5,407.5C 433.025,406.808 433.692,406.308 434.5,406C 432.774,403.29 431.107,403.623 429.5,407C 431.336,408.496 432.169,410.329 432,412.5C 431.072,410.665 429.906,410.332 428.5,411.5C 427.289,410.726 427.289,409.893 428.5,409C 425.736,408.468 423.07,407.634 420.5,406.5C 419.319,404.865 419.319,403.198 420.5,401.5C 418.993,400.261 417.826,400.595 417,402.5C 416.667,402.167 416.333,401.833 416,401.5C 412.884,404.044 409.717,404.044 406.5,401.5C 406.251,402.582 406.085,403.915 406,405.5C 404.989,404.663 403.822,404.33 402.5,404.5C 402.719,403.325 402.386,402.325 401.5,401.5C 400.575,402.641 399.741,402.641 399,401.5C 397.221,404.276 396.221,403.943 396,400.5C 394.691,402.891 393.691,402.891 393,400.5C 392.566,404.223 391.732,404.39 390.5,401C 391.148,399.56 391.481,398.06 391.5,396.5C 389.876,396.36 388.71,397.027 388,398.5C 387.902,396.381 387.069,394.714 385.5,393.5C 382.473,395.529 379.14,396.529 375.5,396.5C 375.662,398.527 375.495,400.527 375,402.5C 373.18,399.45 373.347,396.617 375.5,394C 375.167,393.667 374.833,393.333 374.5,393C 375.7,388.609 376.534,384.109 377,379.5C 380.874,373.748 384.207,367.748 387,361.5C 387.667,357.833 387.667,354.167 387,350.5C 385.185,348.9 384.018,346.9 383.5,344.5C 386.727,342.422 386.227,340.422 382,338.5C 380.765,339.615 379.598,339.615 378.5,338.5C 377.451,341.145 376.117,343.645 374.5,346C 376.162,347.94 375.829,348.606 373.5,348C 372.41,345.03 370.744,344.697 368.5,347C 368.957,347.414 369.291,347.914 369.5,348.5C 368.846,350.115 368.346,351.782 368,353.5C 367.641,350.456 366.974,350.122 366,352.5C 365.667,352.167 365.333,351.833 365,351.5C 364.223,353.215 362.89,354.215 361,354.5C 355.445,355.453 349.945,356.453 344.5,357.5C 345.363,355.105 345.363,352.771 344.5,350.5C 342.843,354.361 341.343,354.361 340,350.5C 338.934,353.563 336.767,355.063 333.5,355C 334.5,355.333 335.5,355.667 336.5,356C 334.133,356.374 332.3,357.541 331,359.5C 329.739,359.241 328.739,358.574 328,357.5C 326.76,360.917 325.593,361.083 324.5,358C 326.393,354.944 328.059,351.777 329.5,348.5C 328.246,346.666 327.579,344.666 327.5,342.5C 328.594,343.582 329.927,344.248 331.5,344.5C 333.105,343.57 334.605,343.57 336,344.5C 336.667,343.167 337.667,342.167 339,341.5C 340.77,343.418 342.937,343.918 345.5,343C 344.62,341.644 344.286,340.144 344.5,338.5C 345.833,338.5 347.167,338.5 348.5,338.5C 348.761,335.085 349.928,335.085 352,338.5C 354.301,337.324 354.634,335.99 353,334.5C 352.086,335.654 351.253,335.487 350.5,334C 353.381,331.155 355.548,331.321 357,334.5C 357.638,333.391 358.138,332.225 358.5,331C 357.107,329.699 356.607,328.199 357,326.5C 359.167,328.167 361.333,329.833 363.5,331.5C 364.685,330.147 366.019,328.98 367.5,328C 365.216,326.637 365.049,325.137 367,323.5C 367.333,324.5 367.667,325.5 368,326.5C 368.202,324.744 368.702,323.078 369.5,321.5C 370.451,322.326 371.451,322.492 372.5,322C 369.576,319.107 369.91,317.94 373.5,318.5C 374.853,317.315 376.02,315.981 377,314.5C 376.97,319.78 379.303,323.447 384,325.5C 387.315,322.221 390.148,317.387 392.5,311C 391.513,308.006 390.18,307.839 388.5,310.5C 387.585,309.672 386.919,308.672 386.5,307.5C 385.522,304.371 385.522,301.038 386.5,297.5C 385.5,297.5 384.5,297.5 383.5,297.5C 383.36,295.876 384.027,294.71 385.5,294C 383.045,291.596 381.212,288.762 380,285.5C 373.278,277.435 364.778,273.768 354.5,274.5C 349.353,275.879 344.187,277.212 339,278.5C 338.5,278.167 338,277.833 337.5,277.5C 339.704,272.252 343.37,268.419 348.5,266C 345.771,265.995 343.771,264.829 342.5,262.5C 343.894,261.313 343.727,260.646 342,260.5C 339.682,260.516 337.349,260.516 335,260.5C 331.894,261.3 329.394,262.967 327.5,265.5C 327.977,266.478 328.643,267.311 329.5,268C 328.167,268.333 326.833,268.667 325.5,269C 325.018,270.008 324.852,271.175 325,272.5C 323.26,271.284 322.26,269.618 322,267.5C 320.022,269.135 318.688,271.801 318,275.5C 316.773,273.274 314.939,271.774 312.5,271C 312.833,270.667 313.167,270.333 313.5,270C 312.751,268.266 312.251,266.433 312,264.5C 310.895,267.479 309.895,270.812 309,274.5C 308.692,273.692 308.192,273.025 307.5,272.5C 305.799,273.802 304.632,275.469 304,277.5C 303.167,276.5 302.333,275.5 301.5,274.5C 300.914,274.709 300.414,275.043 300,275.5C 297.513,273.719 294.679,272.553 291.5,272C 292.833,271.667 294.167,271.333 295.5,271C 292.629,270.869 290.295,269.703 288.5,267.5C 290.933,265.343 293.6,265.176 296.5,267C 298,268.5 299.5,270 301,271.5C 302.44,270.07 302.774,268.403 302,266.5C 300.175,267.571 299.008,266.904 298.5,264.5C 299.737,263.719 300.737,262.719 301.5,261.5C 301.167,261.167 300.833,260.833 300.5,260.5C 299.685,262.276 298.518,262.943 297,262.5C 296.259,259.888 297.259,258.222 300,257.5C 300.612,255.763 299.946,254.763 298,254.5C 295.976,258.119 293.809,258.286 291.5,255C 293.318,250.26 296.651,248.426 301.5,249.5C 304.145,248.892 306.812,248.392 309.5,248C 308.304,247.346 308.304,246.846 309.5,246.5C 311.5,246.833 313.5,247.167 315.5,247.5C 317.481,246.895 317.815,245.895 316.5,244.5C 317.865,243.544 319.365,242.878 321,242.5C 322.845,243.756 324.845,244.756 327,245.5C 328.653,245.18 329.653,244.18 330,242.5C 330.739,243.574 331.739,244.241 333,244.5C 341.112,241.918 349.279,240.584 357.5,240.5C 363.29,236.715 369.623,234.381 376.5,233.5C 376.919,232.328 377.585,231.328 378.5,230.5C 383.319,228.84 387.819,226.507 392,223.5C 396.696,224.914 397.196,224.414 393.5,222C 398.897,221.773 404.231,221.106 409.5,220C 415.477,217.04 421.477,214.04 427.5,211C 434.481,206.017 440.814,200.351 446.5,194C 448.879,193.386 451.212,193.053 453.5,193C 452.147,195.7 450.48,197.367 448.5,198C 449.101,199.605 450.101,200.938 451.5,202C 448.992,206.444 449.492,206.611 453,202.5C 453.483,203.448 453.649,204.448 453.5,205.5C 455.103,205.312 456.437,205.812 457.5,207C 454.431,208.861 451.431,210.694 448.5,212.5C 449.522,213.354 450.355,214.354 451,215.5C 451.333,214.833 451.667,214.167 452,213.5C 453.049,215.107 454.549,215.773 456.5,215.5C 456.673,219.17 455.007,221.67 451.5,223C 452.895,225.075 452.562,226.908 450.5,228.5C 452.14,230.583 454.14,230.916 456.5,229.5 Z"/></g>
<g><path style="opacity:1" fill="#000000" d="M 349.5,196.5 C 350.776,197.386 350.776,198.386 349.5,199.5C 348.438,198.575 348.438,197.575 349.5,196.5 Z"/></g>
<g><path style="opacity:1" fill="#000000" d="M 542.5,205.5 C 543.833,206.167 543.833,206.167 542.5,205.5 Z"/></g>
<g><path style="opacity:1" fill="#f9faf9" d="M 456.5,229.5 C 457.661,227.817 458.661,225.984 459.5,224C 459.095,223.055 458.428,222.388 457.5,222C 458.346,219.218 458.513,216.384 458,213.5C 460.464,212.349 462.964,211.349 465.5,210.5C 464.706,212.873 463.706,215.206 462.5,217.5C 463.868,218.594 465.035,218.26 466,216.5C 466.393,218.199 465.893,219.699 464.5,221C 464.645,221.772 464.978,222.439 465.5,223C 464.331,225.007 463.665,227.173 463.5,229.5C 461.167,229.5 458.833,229.5 456.5,229.5 Z"/></g>
<g><path style="opacity:1" fill="#000000" d="M 350.5,214.5 C 360.803,214.31 360.803,215.31 350.5,217.5C 346.444,217.705 345.944,217.039 349,215.5C 350.107,216.712 350.607,216.379 350.5,214.5 Z"/></g>
<g><path style="opacity:1" fill="#000000" d="M 365.5,217.5 C 367.76,218.238 367.927,219.238 366,220.5C 365.517,219.552 365.351,218.552 365.5,217.5 Z"/></g>
<g><path style="opacity:1" fill="#000000" d="M 511.5,222.5 C 512.833,223.167 512.833,223.167 511.5,222.5 Z"/></g>
<g><path style="opacity:1" fill="#080808" d="M 431.5,225.5 C 433.729,226.055 435.395,227.389 436.5,229.5C 435.311,230.429 433.978,230.762 432.5,230.5C 432.633,233.896 433.633,234.229 435.5,231.5C 436.646,232.145 437.646,232.978 438.5,234C 438.888,235.525 438.888,237.192 438.5,239C 440.715,240.391 440.715,242.057 438.5,244C 440.891,245.309 440.891,246.309 438.5,247C 439.731,248.183 439.731,249.349 438.5,250.5C 437.618,249.24 436.618,248.074 435.5,247C 435.833,246.667 436.167,246.333 436.5,246C 433.748,239.972 431.415,234.139 429.5,228.5C 429.942,227.261 430.609,226.261 431.5,225.5 Z"/></g>
<g><path style="opacity:1" fill="#060606" d="M 376.5,263.5 C 374.026,263.376 371.36,263.209 368.5,263C 367.809,264.067 367.309,265.234 367,266.5C 366.51,264.455 366.677,262.455 367.5,260.5C 365.908,261.602 365.075,260.935 365,258.5C 364.107,259.711 363.274,259.711 362.5,258.5C 364.571,257.024 365.571,255.024 365.5,252.5C 367.06,252.481 368.56,252.148 370,251.5C 371.301,252.893 372.801,253.393 374.5,253C 375.227,250.876 375.894,248.709 376.5,246.5C 378.664,245.586 380.664,244.419 382.5,243C 377.174,239.398 377.841,236.898 384.5,235.5C 383.494,234.604 383.494,233.938 384.5,233.5C 390.689,238.066 392.356,236.9 389.5,230C 390.167,229.833 390.833,229.667 391.5,229.5C 396.671,234.509 401.337,240.009 405.5,246C 403.212,246.822 400.878,247.489 398.5,248C 401.377,248.852 404.043,250.019 406.5,251.5C 404.392,250.775 402.058,250.775 399.5,251.5C 400.145,253.432 401.479,254.599 403.5,255C 402.929,256.205 402.262,257.372 401.5,258.5C 400.5,259.833 399.5,259.833 398.5,258.5C 396.833,259.833 395.167,261.167 393.5,262.5C 392.549,261.674 391.549,261.508 390.5,262C 391.764,264.809 393.764,266.976 396.5,268.5C 395.965,270.101 394.965,270.601 393.5,270C 394.696,269.346 394.696,268.846 393.5,268.5C 392.167,269.833 390.833,269.833 389.5,268.5C 388.406,270.836 387.073,270.836 385.5,268.5C 387.682,267.177 388.349,265.51 387.5,263.5C 384.94,265.223 382.94,267.39 381.5,270C 384.044,271.099 384.044,272.265 381.5,273.5C 380.5,272.167 379.5,272.167 378.5,273.5C 377.719,272.271 377.219,270.938 377,269.5C 375.644,270.38 374.144,270.714 372.5,270.5C 372.127,267.068 373.46,264.734 376.5,263.5 Z"/></g>
<g><path style="opacity:1" fill="#f9faf9" d="M 342.5,237.5 C 344.975,237.747 344.975,238.413 342.5,239.5C 341.537,239.03 341.537,238.363 342.5,237.5 Z"/></g>
<g><path style="opacity:1" fill="#f9faf9" d="M 389.5,238.5 C 390.873,238.343 392.207,238.51 393.5,239C 392,239.833 390.833,241 390,242.5C 388.489,241.436 388.323,240.103 389.5,238.5 Z"/></g>
<g><path style="opacity:1" fill="#000000" d="M 407.5,240.5 C 409.337,240.639 409.67,241.306 408.5,242.5C 407.702,242.043 407.369,241.376 407.5,240.5 Z"/></g>
<g><path style="opacity:1" fill="#000000" d="M 421.5,242.5 C 423.337,242.639 423.67,243.306 422.5,244.5C 421.702,244.043 421.369,243.376 421.5,242.5 Z"/></g>
<g><path style="opacity:1" fill="#f9faf9" d="M 462.5,244.5 C 462.517,242.972 463.184,242.472 464.5,243C 463.956,243.717 463.289,244.217 462.5,244.5 Z"/></g>
<g><path style="opacity:1" fill="#000000" d="M 367.5,246.5 C 367.639,244.663 368.306,244.33 369.5,245.5C 369.043,246.298 368.376,246.631 367.5,246.5 Z"/></g>
<g><path style="opacity:1" fill="#f9faf9" d="M 462.5,244.5 C 463.289,244.217 463.956,243.717 464.5,243C 463.184,242.472 462.517,242.972 462.5,244.5 Z"/></g>
<g><path style="opacity:1" fill="#f9faf9" d="M 384.5,245.5 C 385.376,245.369 386.043,245.702 386.5,246.5C 385.572,247.768 385.405,249.101 386,250.5C 387,251.833 388,251.833 389,250.5C 389.667,253.167 389.667,255.833 389,258.5C 388,257.167 387,255.833 386,254.5C 385.667,255.167 385.333,255.833 385,256.5C 384.405,255.101 384.572,253.768 385.5,252.5C 385.032,250.866 384.032,249.7 382.5,249C 383.973,248.29 384.64,247.124 384.5,245.5 Z"/></g>
<g><path style="opacity:1" fill="#000000" d="M 423.5,245.5 C 424.222,245.918 424.722,246.584 425,247.5C 425.893,246.289 426.726,246.289 427.5,247.5C 427.291,248.086 426.957,248.586 426.5,249C 428.254,251.862 429.921,254.695 431.5,257.5C 430.811,259.444 430.311,261.444 430,263.5C 428.567,257.112 426.401,251.112 423.5,245.5 Z"/></g>
<g><path style="opacity:1" fill="#000000" d="M 367.5,246.5 C 367.053,248.973 366.053,249.14 364.5,247C 365.448,246.517 366.448,246.351 367.5,246.5 Z"/></g>
<g><path style="opacity:1" fill="#f9faf9" d="M 377.5,246.5 C 378.612,248.599 379.279,250.933 379.5,253.5C 378.5,253.5 377.5,253.5 376.5,253.5C 376.993,251.194 377.326,248.861 377.5,246.5 Z"/></g>
<g><path style="opacity:1" fill="#000000" d="M 406.5,246.5 C 408.337,246.639 408.67,247.306 407.5,248.5C 406.702,248.043 406.369,247.376 406.5,246.5 Z"/></g>
<g><path style="opacity:1" fill="#000000" d="M 341.5,253.5 C 339.439,252.249 339.106,250.582 340.5,248.5C 341.452,250.045 341.785,251.712 341.5,253.5 Z"/></g>
<g><path style="opacity:1" fill="#000000" d="M 308.5,258.5 C 308.369,257.761 308.536,257.094 309,256.5C 311.403,255.121 313.57,253.455 315.5,251.5C 322.039,251.741 328.373,251.741 334.5,251.5C 333.449,252.885 332.116,253.885 330.5,254.5C 326.933,255.267 323.433,256.267 320,257.5C 318.124,255.877 316.79,256.21 316,258.5C 315.667,258.167 315.333,257.833 315,257.5C 313.833,259.167 312.667,260.833 311.5,262.5C 310.943,260.668 309.943,259.335 308.5,258.5 Z"/></g>
<g><path style="opacity:1" fill="#000000" d="M 343.5,250.5 C 346.797,250.329 347.131,250.995 344.5,252.5C 343.702,252.043 343.369,251.376 343.5,250.5 Z"/></g>
<g><path style="opacity:1" fill="#f9faf9" d="M 392.5,250.5 C 393.901,250.971 395.234,251.638 396.5,252.5C 395.559,254.772 394.226,256.772 392.5,258.5C 393.024,255.905 393.024,253.239 392.5,250.5 Z"/></g>
<g><path style="opacity:1" fill="#000000" d="M 298.5,251.5 C 299.376,251.369 300.043,251.702 300.5,252.5C 298.192,253.873 297.525,253.54 298.5,251.5 Z"/></g>
<g><path style="opacity:1" fill="#000000" d="M 336.5,252.5 C 337.773,253.077 337.773,253.743 336.5,254.5C 335.537,254.03 335.537,253.363 336.5,252.5 Z"/></g>
<g><path style="opacity:1" fill="#000000" d="M 341.5,253.5 C 344.481,256.122 344.148,256.789 340.5,255.5C 340.863,254.817 341.196,254.15 341.5,253.5 Z"/></g>
<g><path style="opacity:1" fill="#000000" d="M 361.5,253.5 C 362.713,254.497 362.546,255.497 361,256.5C 360.53,255.423 360.697,254.423 361.5,253.5 Z"/></g>
<g><path style="opacity:1" fill="#f9faf9" d="M 367.5,259.5 C 365.992,256.92 366.659,254.92 369.5,253.5C 369.833,253.833 370.167,254.167 370.5,254.5C 369.048,255.94 368.048,257.606 367.5,259.5 Z"/></g>
<g><path style="opacity:1" fill="#000000" d="M 347.5,254.5 C 352.195,259.109 351.195,260.609 344.5,259C 346.117,257.908 347.117,256.408 347.5,254.5 Z"/></g>
<g><path style="opacity:1" fill="#000000" d="M 308.5,258.5 C 307.353,262.391 306.353,262.224 305.5,258C 306.577,257.53 307.577,257.697 308.5,258.5 Z"/></g>
<g><path style="opacity:1" fill="#f9faf9" d="M 367.5,260.5 C 367.5,260.167 367.5,259.833 367.5,259.5C 373.259,256.756 374.092,257.422 370,261.5C 369.329,260.748 368.496,260.414 367.5,260.5 Z"/></g>
<g><path style="opacity:1" fill="#000000" d="M 353.5,258.5 C 354.376,258.369 355.043,258.702 355.5,259.5C 352.74,263.564 352.074,263.231 353.5,258.5 Z"/></g>
<g><path style="opacity:1" fill="#000000" d="M 359.5,258.5 C 360.867,260.093 360.534,261.426 358.5,262.5C 358.167,262.167 357.833,261.833 357.5,261.5C 358.193,260.482 358.859,259.482 359.5,258.5 Z"/></g>
<g><path style="opacity:1" fill="#f9faf9" d="M 385.5,258.5 C 388.041,259.623 388.041,260.956 385.5,262.5C 385.094,261.443 385.094,260.109 385.5,258.5 Z"/></g>
<g><path style="opacity:1" fill="#f9faf9" d="M 376.5,263.5 C 376.908,262.357 377.575,261.357 378.5,260.5C 380.036,262.367 381.703,263.034 383.5,262.5C 381.522,262.738 379.855,264.071 378.5,266.5C 378.984,265.219 378.317,264.219 376.5,263.5 Z"/></g>
<g><path style="opacity:1" fill="#f8f8f8" d="M 243.5,270.5 C 241.871,271.625 240.371,272.959 239,274.5C 237.693,273.228 236.193,272.228 234.5,271.5C 235.522,270.646 236.355,269.646 237,268.5C 237.333,268.833 237.667,269.167 238,269.5C 238.019,266.692 239.019,264.359 241,262.5C 243.336,265.355 245.169,265.022 246.5,261.5C 246.833,261.833 247.167,262.167 247.5,262.5C 246.833,263.5 246.167,264.5 245.5,265.5C 246.65,267.609 247.984,269.609 249.5,271.5C 247.123,273.252 246.956,275.252 249,277.5C 251.142,274.584 253.142,271.584 255,268.5C 256.688,270.045 258.688,271.045 261,271.5C 261.667,273.167 261.667,274.833 261,276.5C 260.692,275.692 260.192,275.025 259.5,274.5C 256.907,278.386 255.907,277.719 256.5,272.5C 255.5,272.5 254.5,272.5 253.5,272.5C 253.662,274.527 253.495,276.527 253,278.5C 251.701,278.034 250.201,278.034 248.5,278.5C 248.657,279.873 248.49,281.207 248,282.5C 246.398,280.693 245.064,278.693 244,276.5C 243.727,278.329 242.893,279.829 241.5,281C 242.668,282.871 242.168,284.371 240,285.5C 237.904,284.285 238.071,283.451 240.5,283C 239.212,280.534 239.212,278.034 240.5,275.5C 242.482,274.784 244.149,273.617 245.5,272C 244.584,271.722 243.918,271.222 243.5,270.5 Z"/></g>
<g><path style="opacity:1" fill="#000000" d="M 399.5,261.5 C 401.048,261.821 401.715,262.821 401.5,264.5C 398.752,264.598 398.086,263.598 399.5,261.5 Z"/></g>
<g><path style="opacity:1" fill="#000000" d="M 314.5,262.5 C 315.613,263.946 315.78,265.613 315,267.5C 313.372,266.038 313.205,264.372 314.5,262.5 Z"/></g>
<g><path style="opacity:1" fill="#000000" d="M 304.5,263.5 C 306.103,263.312 307.437,263.812 308.5,265C 306.537,265.844 305.204,265.344 304.5,263.5 Z"/></g>
<g><path style="opacity:1" fill="#000000" d="M 227.5,264.5 C 228.773,265.077 228.773,265.743 227.5,266.5C 226.537,266.03 226.537,265.363 227.5,264.5 Z"/></g>
<g><path style="opacity:1" fill="#f9faf9" d="M 257.5,266.5 C 259.973,266.947 260.14,267.947 258,269.5C 257.517,268.552 257.351,267.552 257.5,266.5 Z"/></g>
<g><path style="opacity:1" fill="#000000" d="M 243.5,270.5 C 243.783,269.711 244.283,269.044 245,268.5C 245.528,269.816 245.028,270.483 243.5,270.5 Z"/></g>
<g><path style="opacity:1" fill="#000000" d="M 405.5,268.5 C 406.773,269.077 406.773,269.743 405.5,270.5C 404.537,270.03 404.537,269.363 405.5,268.5 Z"/></g>
<g><path style="opacity:1" fill="#f9faf9" d="M 271.5,269.5 C 272.773,270.077 272.773,270.743 271.5,271.5C 270.537,271.03 270.537,270.363 271.5,269.5 Z"/></g>
<g><path style="opacity:1" fill="#f9faf9" d="M 276.5,269.5 C 277.643,269.908 278.643,270.575 279.5,271.5C 277.389,274.353 277.389,277.019 279.5,279.5C 278.82,281.889 277.986,284.222 277,286.5C 276.415,284.871 275.581,283.371 274.5,282C 275.309,280.216 275.976,278.383 276.5,276.5C 275.305,274.106 275.305,271.773 276.5,269.5 Z"/></g>
<g><path style="opacity:1" fill="#f9faf9" d="M 281.5,269.5 C 282.239,269.369 282.906,269.536 283.5,270C 280.852,274.833 280.185,274.666 281.5,269.5 Z"/></g>
<g><path style="opacity:1" fill="#000000" d="M 390.5,270.5 C 391.497,270.47 392.164,270.97 392.5,272C 388.301,276.78 387.634,276.28 390.5,270.5 Z"/></g>
<g><path style="opacity:1" fill="#000000" d="M 372.5,271.5 C 374.337,271.639 374.67,272.306 373.5,273.5C 372.702,273.043 372.369,272.376 372.5,271.5 Z"/></g>
<g><path style="opacity:1" fill="#000000" d="M 404.5,271.5 C 406.337,271.639 406.67,272.306 405.5,273.5C 404.702,273.043 404.369,272.376 404.5,271.5 Z"/></g>
<g><path style="opacity:1" fill="#f9faf9" d="M 312.5,274.5 C 314.973,274.947 315.14,275.947 313,277.5C 312.517,276.552 312.351,275.552 312.5,274.5 Z"/></g>
<g><path style="opacity:1" fill="#4a4a4a" d="M 189.5,268.5 C 189.663,270.857 189.497,273.19 189,275.5C 188.764,277.119 187.931,278.119 186.5,278.5C 187.241,275.587 187.741,272.587 188,269.5C 188.383,268.944 188.883,268.611 189.5,268.5 Z"/></g>
<g><path style="opacity:1" fill="#000000" d="M 379.5,276.5 C 380.598,277.601 380.765,278.934 380,280.5C 378.489,279.436 378.323,278.103 379.5,276.5 Z"/></g>
<g><path style="opacity:1" fill="#dadada" d="M 120.5,285.5 C 121.492,285.328 122.158,285.662 122.5,286.5C 128.09,291.155 127.756,291.988 121.5,289C 113.576,287.747 106.243,285.913 99.5,283.5C 97.5723,284.767 95.739,285.434 94,285.5C 93.6905,284.234 93.1905,283.067 92.5,282C 94.3392,280.868 96.3392,280.035 98.5,279.5C 105.036,284.301 112.369,286.301 120.5,285.5 Z"/></g>
<g><path style="opacity:1" fill="#f8f8f8" d="M 327.5,342.5 C 325.273,343.401 324.273,345.067 324.5,347.5C 323.448,347.649 322.448,347.483 321.5,347C 323.93,341.616 322.263,338.783 316.5,338.5C 316.344,341.841 315.011,344.674 312.5,347C 314.409,347.448 315.576,346.615 316,344.5C 316.49,345.793 316.657,347.127 316.5,348.5C 315.307,348.97 314.64,349.97 314.5,351.5C 316.036,356.38 317.036,361.38 317.5,366.5C 320.765,365.389 324.098,364.389 327.5,363.5C 328.318,366.107 328.818,368.774 329,371.5C 329.667,370.167 330.333,370.167 331,371.5C 331.5,369.667 332.667,368.5 334.5,368C 336.898,367.626 339.231,367.626 341.5,368C 341.167,367.667 340.833,367.333 340.5,367C 344.42,363.787 348.253,364.62 352,369.5C 352.59,375.347 355.257,380.014 360,383.5C 363.167,383.333 366.333,383.167 369.5,383C 366.833,384.333 364.167,385.667 361.5,387C 363.167,387.333 364.833,387.667 366.5,388C 364.044,390.159 364.71,390.992 368.5,390.5C 368.5,391.5 368.5,392.5 368.5,393.5C 367.127,393.343 365.793,393.51 364.5,394C 366.698,395.67 367.032,397.67 365.5,400C 363.559,400.743 361.726,400.576 360,399.5C 358.981,400.687 357.814,401.687 356.5,402.5C 353.834,401.262 351.168,401.262 348.5,402.5C 346.414,404.481 344.081,405.648 341.5,406C 349.33,399.655 348.33,398.822 338.5,403.5C 337.038,402.529 335.705,402.862 334.5,404.5C 333.369,403.249 332.036,402.249 330.5,401.5C 326.869,402.491 323.202,403.324 319.5,404C 317.907,406.905 316.907,410.071 316.5,413.5C 310.835,415 305.168,416.5 299.5,418C 300.833,418.333 302.167,418.667 303.5,419C 303,419.5 302.5,420 302,420.5C 298.643,418.016 295.143,417.35 291.5,418.5C 289.857,418.52 288.524,417.853 287.5,416.5C 285.471,417.629 285.137,417.129 286.5,415C 283.833,414 283.833,413 286.5,412C 284.5,411.333 282.5,411.333 280.5,412C 279.663,413.011 279.33,414.178 279.5,415.5C 275.989,415.147 272.989,413.813 270.5,411.5C 267.536,412.733 266.036,415.066 266,418.5C 265.218,415.924 263.718,413.924 261.5,412.5C 260.614,413.325 260.281,414.325 260.5,415.5C 258.856,415.714 257.356,415.38 256,414.5C 253.966,416.032 251.799,417.365 249.5,418.5C 248.749,417.624 248.249,416.624 248,415.5C 246.899,417.394 245.566,418.061 244,417.5C 239.619,420.2 235.453,419.867 231.5,416.5C 229.831,417.89 228.164,418.223 226.5,417.5C 224.781,420.048 223.448,419.715 222.5,416.5C 221.749,417.376 221.249,418.376 221,419.5C 218.697,417.165 216.197,417.165 213.5,419.5C 201.034,418.863 188.701,418.53 176.5,418.5C 180.788,418.179 184.455,416.513 187.5,413.5C 188.657,409.179 190.823,405.513 194,402.5C 195.899,398.379 196.732,394.046 196.5,389.5C 193.64,389.916 191.474,388.916 190,386.5C 186.145,387.788 182.311,389.121 178.5,390.5C 177.808,389.975 177.308,389.308 177,388.5C 173.899,390.212 170.733,390.878 167.5,390.5C 166.394,388.716 166.394,386.882 167.5,385C 165.544,382.11 166.21,379.443 169.5,377C 168.72,375.927 168.887,374.76 170,373.5C 171.667,374.5 173,375.833 174,377.5C 174.684,376.216 174.517,375.049 173.5,374C 174.715,371.904 175.549,372.071 176,374.5C 176.249,373.376 176.749,372.376 177.5,371.5C 179.727,372.053 182.061,372.053 184.5,371.5C 184.66,369.801 184.494,368.134 184,366.5C 181.139,366.908 180.972,366.075 183.5,364C 193.363,361.503 196.53,355.336 193,345.5C 192.667,345.833 192.333,346.167 192,346.5C 191.751,343.823 190.751,341.49 189,339.5C 189.011,335.964 190.844,333.63 194.5,332.5C 195.647,332.818 196.481,333.484 197,334.5C 198.418,331.999 199.418,332.332 200,335.5C 200.651,333.765 200.485,332.098 199.5,330.5C 201.838,328.661 204.004,326.661 206,324.5C 207.15,325.424 208.15,325.424 209,324.5C 209.667,325.167 210.333,325.833 211,326.5C 211.608,324.846 212.108,323.179 212.5,321.5C 211.835,319.302 211.168,316.969 210.5,314.5C 209.808,315.025 209.308,315.692 209,316.5C 205.167,314.345 201,312.845 196.5,312C 198.618,309.858 201.118,308.358 204,307.5C 205.333,310.167 206.667,310.167 208,307.5C 210.33,309.032 212.33,308.698 214,306.5C 215.044,307.623 215.71,308.956 216,310.5C 216.741,309.359 217.575,309.359 218.5,310.5C 219.192,309.975 219.692,309.308 220,308.5C 221.751,310.723 223.918,311.057 226.5,309.5C 228.167,310.5 229.833,311.5 231.5,312.5C 232.429,311.311 232.762,309.978 232.5,308.5C 233.978,308.238 235.311,308.571 236.5,309.5C 235.089,311.017 235.256,312.351 237,313.5C 238.16,311.203 239.16,311.536 240,314.5C 240.813,312.564 241.313,310.564 241.5,308.5C 242.167,308.5 242.833,308.5 243.5,308.5C 243.373,310.915 243.207,313.249 243,315.5C 245.08,313.5 247.08,311.5 249,309.5C 249.718,310.451 250.551,310.617 251.5,310C 252.071,308.795 252.738,307.628 253.5,306.5C 254.5,310.5 255.5,314.5 256.5,318.5C 258.343,315.578 261.01,314.245 264.5,314.5C 264.34,312.801 264.506,311.134 265,309.5C 265.206,312.623 265.873,315.623 267,318.5C 267.182,315.774 267.682,313.107 268.5,310.5C 269.281,311.729 269.781,313.062 270,314.5C 270.667,312.167 270.667,309.833 270,307.5C 269.465,309.271 268.631,309.604 267.5,308.5C 269.582,302.796 272.582,302.13 276.5,306.5C 276.639,305.081 277.139,303.748 278,302.5C 279.744,303.649 279.911,304.983 278.5,306.5C 280.795,308.2 282.128,310.534 282.5,313.5C 283.167,312.167 283.833,310.833 284.5,309.5C 283.893,313.625 285.559,316.958 289.5,319.5C 291.747,318.626 294.08,318.292 296.5,318.5C 296.5,317.167 296.5,315.833 296.5,314.5C 290.516,314.625 290.016,313.291 295,310.5C 299.917,310.9 300.75,312.9 297.5,316.5C 297.842,318.867 298.342,321.2 299,323.5C 299.5,323 300,322.5 300.5,322C 298.968,318.992 299.968,317.158 303.5,316.5C 304.142,319.797 305.309,320.131 307,317.5C 307.483,318.448 307.649,319.448 307.5,320.5C 312.723,320.795 313.723,318.962 310.5,315C 311.554,313.612 311.72,312.112 311,310.5C 310.586,310.957 310.086,311.291 309.5,311.5C 307.517,311.185 306.184,310.185 305.5,308.5C 307.293,308.116 308.293,306.95 308.5,305C 307.523,303.503 306.523,302.003 305.5,300.5C 305.68,299.446 306.013,298.446 306.5,297.5C 303.26,294.219 302.426,290.553 304,286.5C 304.595,290.082 305.929,290.416 308,287.5C 308.167,287.833 308.333,288.167 308.5,288.5C 306.441,289.951 305.441,291.951 305.5,294.5C 307.527,294.338 309.527,294.505 311.5,295C 307.208,299.528 307.708,300.362 313,297.5C 314.587,298.727 315.921,298.394 317,296.5C 318.174,298.671 320.007,299.671 322.5,299.5C 322.413,302.598 322.913,302.932 324,300.5C 324.5,301 325,301.5 325.5,302C 324.62,303.356 324.286,304.856 324.5,306.5C 326.689,306.207 328.689,305.707 330.5,305C 331.535,306.507 331.368,308.007 330,309.5C 329.667,309.167 329.333,308.833 329,308.5C 328.333,309.5 328.333,310.5 329,311.5C 329.333,311.167 329.667,310.833 330,310.5C 331.844,311.711 332.678,313.044 332.5,314.5C 333.547,313.078 333.547,311.578 332.5,310C 332.85,308.743 333.517,308.409 334.5,309C 334.953,312.227 335.953,315.227 337.5,318C 331.401,321.676 331.068,325.676 336.5,330C 335.971,334.021 335.138,338.188 334,342.5C 332,341.833 330,341.167 328,340.5C 327.536,341.094 327.369,341.761 327.5,342.5 Z"/></g>
<g><path style="opacity:1" fill="#f9faf9" d="M 94.5,288.5 C 95.5593,290.07 95.0593,291.403 93,292.5C 92.5,292 92,291.5 91.5,291C 92.5707,290.148 93.5707,289.315 94.5,288.5 Z"/></g>
<g><path style="opacity:1" fill="#f9faf9" d="M 207.5,290.5 C 208.675,290.281 209.675,290.614 210.5,291.5C 209.14,292.665 208.14,292.332 207.5,290.5 Z"/></g>
<g><path style="opacity:1" fill="#f9faf9" d="M 360.5,290.5 C 362.852,291.543 363.019,292.876 361,294.5C 359.232,293.318 359.065,291.985 360.5,290.5 Z"/></g>
<g><path style="opacity:1" fill="#f9faf9" d="M 269.5,291.5 C 270.782,292.708 270.782,294.042 269.5,295.5C 269.094,294.443 269.094,293.109 269.5,291.5 Z"/></g>
<g><path style="opacity:1" fill="#f9faf9" d="M 67.5,292.5 C 69.9752,292.747 69.9752,293.413 67.5,294.5C 66.537,294.03 66.537,293.363 67.5,292.5 Z"/></g>
<g><path style="opacity:1" fill="#f9faf9" d="M 296.5,292.5 C 298.337,292.639 298.67,293.306 297.5,294.5C 296.702,294.043 296.369,293.376 296.5,292.5 Z"/></g>
<g><path style="opacity:1" fill="#f9faf9" d="M 61.5,294.5 C 63.6569,295.053 63.4903,296.053 61,297.5C 60.5304,296.423 60.6971,295.423 61.5,294.5 Z"/></g>
<g><path style="opacity:1" fill="#f4f4f4" d="M 264.5,294.5 C 264.516,298.179 264.849,302.013 265.5,306C 264.711,307.626 263.711,309.126 262.5,310.5C 262.795,309.174 262.295,307.841 261,306.5C 259.817,307.731 258.651,307.731 257.5,306.5C 259.191,304.508 261.025,303.508 263,303.5C 263.46,301.286 262.793,300.619 261,301.5C 259.56,300.07 259.226,298.403 260,296.5C 260.677,298.689 261.844,299.022 263.5,297.5C 264.386,296.675 264.719,295.675 264.5,294.5 Z"/></g>
<g><path style="opacity:1" fill="#f9faf9" d="M 116.5,295.5 C 117.496,295.414 118.329,295.748 119,296.5C 119.402,297.872 119.902,299.205 120.5,300.5C 118.808,302.359 117.308,304.359 116,306.5C 115.707,303.046 114.374,302.712 112,305.5C 110.921,303.606 109.587,303.273 108,304.5C 107.5,303.5 107,302.5 106.5,301.5C 107.95,300.15 108.617,298.484 108.5,296.5C 111.049,296.441 113.049,297.441 114.5,299.5C 115.362,298.234 116.029,296.901 116.5,295.5 Z"/></g>
<g><path style="opacity:1" fill="#f9faf9" d="M 103.5,298.5 C 104.239,298.369 104.906,298.536 105.5,299C 104.809,300.067 104.309,301.234 104,302.5C 102.232,301.318 102.065,299.985 103.5,298.5 Z"/></g>
<g><path style="opacity:1" fill="#000000" d="M 109.5,298.5 C 110.239,298.369 110.906,298.536 111.5,299C 109.25,303.574 108.583,303.407 109.5,298.5 Z"/></g>
<g><path style="opacity:1" fill="#f9faf9" d="M 123.5,298.5 C 124.793,300.364 124.793,302.364 123.5,304.5C 122.5,304 121.5,303.5 120.5,303C 122.376,302.082 123.376,300.582 123.5,298.5 Z"/></g>
<g><path style="opacity:1" fill="#f9faf9" d="M 283.5,298.5 C 284.216,300.556 284.883,302.723 285.5,305C 285.167,305.167 284.833,305.333 284.5,305.5C 283.526,303.257 283.192,300.924 283.5,298.5 Z"/></g>
<g><path style="opacity:1" fill="#f9faf9" d="M 127.5,299.5 C 133.428,300.317 134.428,302.651 130.5,306.5C 130.002,305.397 129.669,304.397 129.5,303.5C 128.476,304.853 127.143,305.52 125.5,305.5C 125.253,303.142 125.919,301.142 127.5,299.5 Z"/></g>
<g><path style="opacity:1" fill="#f9faf9" d="M 256.5,300.5 C 257.239,300.369 257.906,300.536 258.5,301C 255.832,307.149 255.165,306.982 256.5,300.5 Z"/></g>
<g><path style="opacity:1" fill="#f9faf9" d="M 243.5,308.5 C 243.383,306.516 244.05,304.85 245.5,303.5C 245.833,303.833 246.167,304.167 246.5,304.5C 245.479,305.901 244.479,307.235 243.5,308.5 Z"/></g>
<g><path style="opacity:1" fill="#f9faf9" d="M 287.5,304.5 C 288.797,305.849 288.63,307.182 287,308.5C 286.805,307.181 286.972,305.847 287.5,304.5 Z"/></g>
<g><path style="opacity:1" fill="#f9faf9" d="M 303.5,306.5 C 301.952,306.821 301.285,307.821 301.5,309.5C 299.712,309.785 298.045,309.452 296.5,308.5C 298.815,307.766 300.648,306.432 302,304.5C 302.717,305.044 303.217,305.711 303.5,306.5 Z"/></g>
<g><path style="opacity:1" fill="#000000" d="M 322.5,304.5 C 323.773,305.077 323.773,305.743 322.5,306.5C 321.537,306.03 321.537,305.363 322.5,304.5 Z"/></g>
<g><path style="opacity:1" fill="#f9faf9" d="M 163.5,305.5 C 169.963,308.216 169.963,309.216 163.5,308.5C 163.5,307.5 163.5,306.5 163.5,305.5 Z"/></g>
<g><path style="opacity:1" fill="#f9faf9" d="M 241.5,308.5 C 240.224,307.614 240.224,306.614 241.5,305.5C 242.087,306.233 242.087,307.233 241.5,308.5 Z"/></g>
<g><path style="opacity:1" fill="#f9faf9" d="M 102.5,306.5 C 103.75,306.577 104.583,307.244 105,308.5C 105.423,307.044 106.256,306.544 107.5,307C 106.95,310.008 105.45,310.841 103,309.5C 95.279,312.587 90.6123,318.254 89,326.5C 88.7822,323.574 88.2822,320.74 87.5,318C 88.8333,317.667 90.1667,317.333 91.5,317C 94.3878,312.579 98.0544,309.079 102.5,306.5 Z"/></g>
<g><path style="opacity:1" fill="#000000" d="M 276.5,306.5 C 277.218,308.137 277.384,309.803 277,311.5C 275.667,312.833 274.333,314.167 273,315.5C 272.333,314.5 272.333,313.5 273,312.5C 274.082,310.382 275.249,308.382 276.5,306.5 Z"/></g>
<g><path style="opacity:1" fill="#f9faf9" d="M 303.5,306.5 C 304.833,306.5 305.5,307.167 305.5,308.5C 305.5,307.167 304.833,306.5 303.5,306.5 Z"/></g>
<g><path style="opacity:1" fill="#f9faf9" d="M 172.5,307.5 C 178.659,307.669 184.992,308.336 191.5,309.5C 192.681,311.198 192.681,312.865 191.5,314.5C 188.239,313.984 185.405,312.651 183,310.5C 180.413,312.315 177.746,312.982 175,312.5C 173.628,311.09 172.795,309.423 172.5,307.5 Z"/></g>
<g><path style="opacity:1" fill="#000000" d="M 321.5,307.5 C 323.337,307.639 323.67,308.306 322.5,309.5C 321.702,309.043 321.369,308.376 321.5,307.5 Z"/></g>
<g><path style="opacity:1" fill="#000000" d="M 251.5,311.5 C 252.748,312.334 253.415,313.667 253.5,315.5C 253.333,316.833 253.167,318.167 253,319.5C 252.605,316.793 252.105,314.127 251.5,311.5 Z"/></g>
<g><path style="opacity:1" fill="#f9faf9" d="M 60.5,312.5 C 61.5,312.5 62.5,312.5 63.5,312.5C 62.824,316.187 61.324,319.52 59,322.5C 60.0508,319.085 60.5508,315.751 60.5,312.5 Z"/></g>
<g><path style="opacity:1" fill="#000000" d="M 212.5,321.5 C 214.369,318.76 215.869,315.76 217,312.5C 216.351,314.832 216.518,317.166 217.5,319.5C 215.978,320.562 214.312,321.229 212.5,321.5 Z"/></g>
<g><path style="opacity:1" fill="#f9faf9" d="M 340.5,314.5 C 342.476,315.427 342.809,316.76 341.5,318.5C 340.571,317.311 340.238,315.978 340.5,314.5 Z"/></g>
<g><path style="opacity:1" fill="#f9faf9" d="M 114.5,315.5 C 115.043,315.56 115.376,315.893 115.5,316.5C 112.23,318.959 111.897,318.625 114.5,315.5 Z"/></g>
<g><path style="opacity:1" fill="#f9faf9" d="M 118.5,315.5 C 124.742,317.569 124.742,318.569 118.5,318.5C 118.5,317.5 118.5,316.5 118.5,315.5 Z"/></g>
<g><path style="opacity:1" fill="#000000" d="M 282.5,315.5 C 284.332,316.14 284.665,317.14 283.5,318.5C 282.614,317.675 282.281,316.675 282.5,315.5 Z"/></g>
<g><path style="opacity:1" fill="#000000" d="M 333.5,315.5 C 334.801,317.456 334.301,319.123 332,320.5C 331.878,318.718 332.378,317.052 333.5,315.5 Z"/></g>
<g><path style="opacity:1" fill="#f9faf9" d="M 108.5,316.5 C 112.3,316.819 112.466,317.819 109,319.5C 108.517,318.552 108.351,317.552 108.5,316.5 Z"/></g>
<g><path style="opacity:1" fill="#000000" d="M 237.5,316.5 C 241.029,317.03 241.362,318.363 238.5,320.5C 237.571,319.311 237.238,317.978 237.5,316.5 Z"/></g>
<g><path style="opacity:1" fill="#f9faf9" d="M 124.5,319.5 C 127.077,318.271 129.077,319.105 130.5,322C 128.213,322.028 126.213,321.195 124.5,319.5 Z"/></g>
<g><path style="opacity:1" fill="#000000" d="M 243.5,319.5 C 244.776,320.386 244.776,321.386 243.5,322.5C 242.913,321.767 242.913,320.767 243.5,319.5 Z"/></g>
<g><path style="opacity:1" fill="#000000" d="M 307.5,320.5 C 307.483,322.028 306.816,322.528 305.5,322C 306.044,321.283 306.711,320.783 307.5,320.5 Z"/></g>
<g><path style="opacity:1" fill="#f9faf9" d="M 344.5,320.5 C 346.914,321.777 347.081,323.443 345,325.5C 343.212,323.977 343.045,322.31 344.5,320.5 Z"/></g>
<g><path style="opacity:1" fill="#000000" d="M 292.5,321.5 C 297.539,321.451 297.705,322.118 293,323.5C 292.536,322.906 292.369,322.239 292.5,321.5 Z"/></g>
<g><path style="opacity:1" fill="#f9faf9" d="M 361.5,322.5 C 364.414,324.39 364.914,326.723 363,329.5C 361.833,327.833 360.667,326.167 359.5,324.5C 360.243,323.818 360.909,323.151 361.5,322.5 Z"/></g>
<g><path style="opacity:1" fill="#000000" d="M 487.5,322.5 C 488.613,323.946 488.78,325.613 488,327.5C 486.933,326.809 485.766,326.309 484.5,326C 486.426,325.578 487.426,324.411 487.5,322.5 Z"/></g>
<g><path style="opacity:1" fill="#000000" d="M 311.5,323.5 C 312.776,324.386 312.776,325.386 311.5,326.5C 310.438,325.575 310.438,324.575 311.5,323.5 Z"/></g>
<g><path style="opacity:1" fill="#000000" d="M 242.5,324.5 C 243.713,325.497 243.546,326.497 242,327.5C 241.53,326.423 241.697,325.423 242.5,324.5 Z"/></g>
<g><path style="opacity:1" fill="#f9faf9" d="M 53.5,325.5 C 55.5841,326.248 57.5841,326.248 59.5,325.5C 61.026,326.906 62.6927,328.072 64.5,329C 63.6959,330.771 62.5292,332.271 61,333.5C 59.4263,332.016 58.093,330.349 57,328.5C 54.6793,329.361 53.5126,328.361 53.5,325.5 Z"/></g>
<g><path style="opacity:1" fill="#000000" d="M 304.5,325.5 C 305.479,326.765 306.479,328.099 307.5,329.5C 306.273,330.59 305.44,331.924 305,333.5C 304.5,332.333 303.667,331.5 302.5,331C 303.973,330.29 304.64,329.124 304.5,327.5C 303.127,327.657 301.793,327.49 300.5,327C 302.058,326.79 303.391,326.29 304.5,325.5 Z"/></g>
<g><path style="opacity:1" fill="#f9faf9" d="M 346.5,325.5 C 350.157,325.974 350.324,327.307 347,329.5C 346.51,328.207 346.343,326.873 346.5,325.5 Z"/></g>
<g><path style="opacity:1" fill="#f9faf9" d="M 492.5,327.5 C 494.423,329.201 494.757,331.201 493.5,333.5C 492.692,333.192 492.025,332.692 491.5,332C 492.38,330.644 492.714,329.144 492.5,327.5 Z"/></g>
<g><path style="opacity:1" fill="#f4f4f4" d="M 63.5,398.5 C 65.8795,397.433 66.8795,398.433 66.5,401.5C 63.1501,401.665 59.8168,401.498 56.5,401C 51.6383,397.305 46.6383,393.805 41.5,390.5C 40.4727,383.809 39.3061,377.142 38,370.5C 36.503,366.835 34.503,363.502 32,360.5C 31.3333,353.167 31.3333,345.833 32,338.5C 35.2331,333.579 37.5664,328.246 39,322.5C 39.7858,315.691 40.9525,309.025 42.5,302.5C 43.1667,302.5 43.5,302.167 43.5,301.5C 45.7783,298.603 47.2783,295.27 48,291.5C 53.4319,289.204 58.2653,286.037 62.5,282C 71.2554,280.463 79.9221,280.63 88.5,282.5C 87.4901,285.255 85.6568,287.255 83,288.5C 83.0187,286.893 83.1854,285.226 83.5,283.5C 79.8508,284.74 76.3508,286.407 73,288.5C 71.0786,287.81 69.2453,287.476 67.5,287.5C 65.0993,289.562 62.4326,291.229 59.5,292.5C 54.5224,290.418 50.689,291.751 48,296.5C 45.4157,301.504 44.0824,306.837 44,312.5C 40.6839,315.366 40.8505,317.866 44.5,320C 44.1667,320.333 43.8333,320.667 43.5,321C 48.4608,321.904 49.4608,324.237 46.5,328C 43.313,328.001 40.4797,328.834 38,330.5C 37.1913,336.749 37.358,342.916 38.5,349C 41.5,349.333 44.5,349.667 47.5,350C 48.8333,350.667 49.8333,351.667 50.5,353C 52.9519,353.29 55.2852,353.956 57.5,355C 58.1122,356.303 58.4455,357.47 58.5,358.5C 60.1491,356.35 61.9824,354.35 64,352.5C 65.0793,354.394 66.4126,354.727 68,353.5C 68.8753,355.513 70.2087,355.513 72,353.5C 72.3333,353.833 72.6667,354.167 73,354.5C 72.76,356.467 71.9266,358.3 70.5,360C 73.1848,362.501 72.6848,364.334 69,365.5C 68.5172,366.448 68.3505,367.448 68.5,368.5C 67.1667,368.5 65.8333,368.5 64.5,368.5C 64.6495,367.448 64.4828,366.448 64,365.5C 61.9479,366.723 59.7812,367.723 57.5,368.5C 56.8596,371.648 55.8596,371.981 54.5,369.5C 51.8103,371.356 49.6437,373.689 48,376.5C 47.6667,375.833 47.3333,375.167 47,374.5C 43.9625,377.469 43.2958,380.803 45,384.5C 48.2755,388.201 51.4422,392.035 54.5,396C 56.9398,397.303 59.4398,398.47 62,399.5C 62.7648,399.43 63.2648,399.097 63.5,398.5 Z"/></g>
<g><path style="opacity:1" fill="#000000" d="M 237.5,334.5 C 240.001,334.511 240.168,335.178 238,336.5C 237.536,335.906 237.369,335.239 237.5,334.5 Z"/></g>
<g><path style="opacity:1" fill="#000000" d="M 310.5,334.5 C 312.807,335.405 312.807,336.738 310.5,338.5C 309.708,337.3 309.708,335.967 310.5,334.5 Z"/></g>
<g><path style="opacity:1" fill="#f9faf9" d="M 495.5,334.5 C 497.646,334.696 497.812,335.696 496,337.5C 495.517,336.552 495.351,335.552 495.5,334.5 Z"/></g>
<g><path style="opacity:1" fill="#000000" d="M 28.5,338.5 C 27.8333,337.167 27.8333,337.167 28.5,338.5 Z"/></g>
<g><path style="opacity:1" fill="#f9faf9" d="M 55.5,340.5 C 56.675,340.281 57.675,340.614 58.5,341.5C 57.086,342.624 55.586,343.624 54,344.5C 53.5646,350.82 52.7313,350.987 51.5,345C 53.0414,343.629 54.3747,342.129 55.5,340.5 Z"/></g>
<g><path style="opacity:1" fill="#000000" d="M 312.5,341.5 C 315.001,341.511 315.168,342.178 313,343.5C 312.536,342.906 312.369,342.239 312.5,341.5 Z"/></g>
<g><path style="opacity:1" fill="#707070" d="M 497.5,343.5 C 498.833,345.5 498.833,347.5 497.5,349.5C 496.725,347.612 496.725,345.612 497.5,343.5 Z"/></g>
<g><path style="opacity:1" fill="#000000" d="M 482.5,346.5 C 483.478,346.811 484.145,347.478 484.5,348.5C 483.359,349.425 483.359,350.259 484.5,351C 482.431,351.324 482.098,352.158 483.5,353.5C 482.635,354.583 481.635,354.749 480.5,354C 481.345,352.442 480.679,351.442 478.5,351C 479.793,350.51 481.127,350.343 482.5,350.5C 482.5,349.167 482.5,347.833 482.5,346.5 Z"/></g>
<g><path style="opacity:1" fill="#000000" d="M 488.5,347.5 C 491.91,347.384 493.244,349.05 492.5,352.5C 491.127,352.657 489.793,352.49 488.5,352C 490.878,351.026 490.544,350.359 487.5,350C 488.252,349.329 488.586,348.496 488.5,347.5 Z"/></g>
<g><path style="opacity:1" fill="#f9faf9" d="M 316.5,348.5 C 317.289,348.783 317.956,349.283 318.5,350C 317.184,350.528 316.517,350.028 316.5,348.5 Z"/></g>
<g><path style="opacity:1" fill="#f9faf9" d="M 326.5,348.5 C 327.559,350.07 327.059,351.403 325,352.5C 324.7,350.934 325.2,349.601 326.5,348.5 Z"/></g>
<g><path style="opacity:1" fill="#000000" d="M 469.5,350.5 C 471.337,350.639 471.67,351.306 470.5,352.5C 469.702,352.043 469.369,351.376 469.5,350.5 Z"/></g>
<g><path style="opacity:1" fill="#f9faf9" d="M 94.5,352.5 C 97.1402,353.794 97.1402,355.127 94.5,356.5C 93.3744,355.192 93.3744,353.858 94.5,352.5 Z"/></g>
<g><path style="opacity:1" fill="#f4f4f4" d="M 382.5,350.5 C 384.777,351.862 385.11,353.695 383.5,356C 385.013,357.879 385.679,360.046 385.5,362.5C 384.5,362.5 383.5,362.5 382.5,362.5C 382.565,368.948 381.732,368.948 380,362.5C 379.747,365.79 378.747,368.79 377,371.5C 376.667,370.833 376.333,370.167 376,369.5C 375.598,370.872 375.098,372.205 374.5,373.5C 373.5,374.833 372.5,374.833 371.5,373.5C 374.108,366.737 375.941,359.737 377,352.5C 377.26,354.618 378.26,356.284 380,357.5C 380.856,355.132 381.69,352.798 382.5,350.5 Z"/></g>
<g><path style="opacity:1" fill="#000000" d="M 471.5,353.5 C 472.376,353.369 473.043,353.702 473.5,354.5C 471.192,355.873 470.525,355.54 471.5,353.5 Z"/></g>
<g><path style="opacity:1" fill="#000000" d="M 475.5,354.5 C 476.849,353.203 478.182,353.37 479.5,355C 478.072,355.579 476.738,355.412 475.5,354.5 Z"/></g>
<g><path style="opacity:1" fill="#000000" d="M 490.5,355.5 C 491.376,355.369 492.043,355.702 492.5,356.5C 490.192,357.873 489.525,357.54 490.5,355.5 Z"/></g>
<g><path style="opacity:1" fill="#000000" d="M 63.5,356.5 C 64.2891,356.783 64.9558,357.283 65.5,358C 64.7669,361.297 62.9336,363.797 60,365.5C 60.0788,362.1 61.2454,359.1 63.5,356.5 Z"/></g>
<g><path style="opacity:1" fill="#000000" d="M 312.5,359.5 C 315.481,362.122 315.148,362.789 311.5,361.5C 311.863,360.817 312.196,360.15 312.5,359.5 Z"/></g>
<g><path style="opacity:1" fill="#f9faf9" d="M 367.5,359.5 C 372.14,362.104 373.307,365.771 371,370.5C 368.499,374.534 365.332,377.867 361.5,380.5C 354.791,377.782 353.958,374.115 359,369.5C 360.352,371.594 360.852,373.927 360.5,376.5C 361.552,376.649 362.552,376.483 363.5,376C 362.773,373.876 362.106,371.709 361.5,369.5C 363.034,365.743 365.034,362.41 367.5,359.5 Z"/></g>
<g><path style="opacity:1" fill="#000000" d="M 475.5,362.5 C 475.047,361.542 474.381,360.708 473.5,360C 473.833,359.833 474.167,359.667 474.5,359.5C 476.11,360.552 477.777,360.552 479.5,359.5C 481,359.453 482,360.119 482.5,361.5C 480.334,361.28 478.001,361.613 475.5,362.5 Z"/></g>
<g><path style="opacity:1" fill="#000000" d="M 464.5,360.5 C 465.773,361.077 465.773,361.743 464.5,362.5C 463.537,362.03 463.537,361.363 464.5,360.5 Z"/></g>
<g><path style="opacity:1" fill="#f9faf9" d="M 87.5,363.5 C 88.7375,364.743 88.4041,365.743 86.5,366.5C 86.1667,366.167 85.8333,365.833 85.5,365.5C 86.2427,364.818 86.9094,364.151 87.5,363.5 Z"/></g>
<g><path style="opacity:1" fill="#000000" d="M 482.5,363.5 C 484.337,363.639 484.67,364.306 483.5,365.5C 482.702,365.043 482.369,364.376 482.5,363.5 Z"/></g>
<g><path style="opacity:1" fill="#000000" d="M 200.5,365.5 C 205.092,367.217 205.592,369.884 202,373.5C 200.921,370.937 200.421,368.271 200.5,365.5 Z"/></g>
<g><path style="opacity:1" fill="#000000" d="M 192.5,367.5 C 193.833,367.5 195.167,367.5 196.5,367.5C 196.5,370.833 196.5,374.167 196.5,377.5C 198.981,377.677 200.814,376.677 202,374.5C 201.516,377.079 200.849,379.745 200,382.5C 199.716,380.114 198.716,379.448 197,380.5C 195.471,379.271 194.304,377.771 193.5,376C 192.552,375.517 191.552,375.351 190.5,375.5C 190.132,372.467 190.798,369.8 192.5,367.5 Z"/></g>
<g><path style="opacity:1" fill="#f9faf9" d="M 62.5,369.5 C 65.0009,369.511 65.1676,370.178 63,371.5C 62.5357,370.906 62.369,370.239 62.5,369.5 Z"/></g>
<g><path style="opacity:1" fill="#f9faf9" d="M 67.5,369.5 C 70.7805,370.732 71.1138,372.399 68.5,374.5C 67.5481,372.955 67.2148,371.288 67.5,369.5 Z"/></g>
<g><path style="opacity:1" fill="#000000" d="M 336.5,370.5 C 337.708,369.218 339.042,369.218 340.5,370.5C 339.3,371.292 337.967,371.292 336.5,370.5 Z"/></g>
<g><path style="opacity:1" fill="#000000" d="M 346.5,379.5 C 347.717,376.509 346.55,374.842 343,374.5C 342.51,373.207 342.343,371.873 342.5,370.5C 344.199,370.34 345.866,370.506 347.5,371C 346.692,371.308 346.025,371.808 345.5,372.5C 347.328,373.795 349.328,374.795 351.5,375.5C 349.519,375.95 347.852,377.283 346.5,379.5 Z"/></g>
<g><path style="opacity:1" fill="#000000" d="M 363.5,370.5 C 365.337,370.639 365.67,371.306 364.5,372.5C 363.702,372.043 363.369,371.376 363.5,370.5 Z"/></g>
<g><path style="opacity:1" fill="#000000" d="M 481.5,370.5 C 482.289,370.783 482.956,371.283 483.5,372C 482.184,372.528 481.517,372.028 481.5,370.5 Z"/></g>
<g><path style="opacity:1" fill="#000000" d="M 459.5,371.5 C 460.675,371.281 461.675,371.614 462.5,372.5C 461.277,373.614 459.944,373.781 458.5,373C 459.056,372.617 459.389,372.117 459.5,371.5 Z"/></g>
<g><path style="opacity:1" fill="#000000" d="M 465.5,371.5 C 466.873,371.343 468.207,371.51 469.5,372C 469.833,373 470.167,374 470.5,375C 467.808,375.319 466.142,374.153 465.5,371.5 Z"/></g>
<g><path style="opacity:1" fill="#f9faf9" d="M 373.5,375.5 C 374.645,376.793 374.311,377.959 372.5,379C 370.55,380.496 368.55,380.663 366.5,379.5C 366.977,378.522 367.643,377.689 368.5,377C 370.382,376.802 372.048,376.302 373.5,375.5 Z"/></g>
<g><path style="opacity:1" fill="#000000" d="M 334.5,376.5 C 335.766,377.09 337.099,377.59 338.5,378C 336.537,378.844 335.204,378.344 334.5,376.5 Z"/></g>
<g><path style="opacity:1" fill="#000000" d="M 454.5,377.5 C 458.276,377.469 458.443,378.136 455,379.5C 453.316,379.317 453.15,378.65 454.5,377.5 Z"/></g>
<g><path style="opacity:1" fill="#000000" d="M 449.5,378.5 C 452.293,378.74 452.793,379.74 451,381.5C 450.439,380.978 449.772,380.645 449,380.5C 447.433,381.856 445.6,382.523 443.5,382.5C 443.5,381.5 443.5,380.5 443.5,379.5C 445.735,379.795 447.735,379.461 449.5,378.5 Z"/></g>
<g><path style="opacity:1" fill="#000000" d="M 346.5,379.5 C 346.953,380.458 347.619,381.292 348.5,382C 346.741,382.798 345.074,382.631 343.5,381.5C 344.005,380.081 345.005,379.415 346.5,379.5 Z"/></g>
<g><path style="opacity:1" fill="#000000" d="M 335.5,380.5 C 336.756,380.461 337.756,380.961 338.5,382C 337.167,382.667 335.833,382.667 334.5,382C 335.056,381.617 335.389,381.117 335.5,380.5 Z"/></g>
<g><path style="opacity:1" fill="#f9faf9" d="M 475.5,381.5 C 477.663,382.878 479.996,384.045 482.5,385C 485.085,388.837 484.751,389.171 481.5,386C 478.077,386.145 476.077,384.645 475.5,381.5 Z"/></g>
<g><path style="opacity:1" fill="#000000" d="M 170.5,382.5 C 172.337,382.639 172.67,383.306 171.5,384.5C 170.702,384.043 170.369,383.376 170.5,382.5 Z"/></g>
<g><path style="opacity:1" fill="#000000" d="M 448.5,382.5 C 449.376,382.369 450.043,382.702 450.5,383.5C 448.192,384.873 447.525,384.54 448.5,382.5 Z"/></g>
<g><path style="opacity:1" fill="#000000" d="M 455.5,383.5 C 456.773,384.077 456.773,384.743 455.5,385.5C 454.537,385.03 454.537,384.363 455.5,383.5 Z"/></g>
<g><path style="opacity:1" fill="#f9faf9" d="M 372.5,384.5 C 373.586,384.62 374.253,385.287 374.5,386.5C 373.764,391.117 372.264,395.451 370,399.5C 368.812,398.437 368.312,397.103 368.5,395.5C 369.552,395.649 370.552,395.483 371.5,395C 368.661,391.073 368.994,387.573 372.5,384.5 Z"/></g>
<g><path style="opacity:1" fill="#000000" d="M 444.5,386.5 C 447.001,386.826 448.168,388.159 448,390.5C 446.491,389.91 444.991,389.244 443.5,388.5C 443.863,387.817 444.196,387.15 444.5,386.5 Z"/></g>
<g><path style="opacity:1" fill="#f9faf9" d="M 466.5,391.5 C 465.2,390.399 464.7,389.066 465,387.5C 466.935,389.102 469.101,390.269 471.5,391C 470.584,391.374 469.75,391.874 469,392.5C 468.329,391.748 467.496,391.414 466.5,391.5 Z"/></g>
<g><path style="opacity:1" fill="#000000" d="M 360.5,390.5 C 363.001,390.511 363.168,391.178 361,392.5C 360.536,391.906 360.369,391.239 360.5,390.5 Z"/></g>
<g><path style="opacity:1" fill="#000000" d="M 451.5,390.5 C 452.773,391.077 452.773,391.743 451.5,392.5C 450.537,392.03 450.537,391.363 451.5,390.5 Z"/></g>
<g><path style="opacity:1" fill="#f9faf9" d="M 473.5,390.5 C 476.363,390.929 479.029,391.929 481.5,393.5C 481.333,393.833 481.167,394.167 481,394.5C 479.266,393.751 477.433,393.251 475.5,393C 474.244,392.583 473.577,391.75 473.5,390.5 Z"/></g>
<g><path style="opacity:1" fill="#000000" d="M 345.5,391.5 C 347.337,391.639 347.67,392.306 346.5,393.5C 345.702,393.043 345.369,392.376 345.5,391.5 Z"/></g>
<g><path style="opacity:1" fill="#000000" d="M 459.5,396.5 C 459.393,394.621 459.893,394.288 461,395.5C 461.632,398.875 461.132,399.209 459.5,396.5 Z"/></g>
<g><path style="opacity:1" fill="#000000" d="M 459.5,396.5 C 457.599,398.874 455.265,399.041 452.5,397C 454.473,394.985 456.14,395.152 457.5,397.5C 458.183,397.137 458.85,396.804 459.5,396.5 Z"/></g>
<g><path style="opacity:1" fill="#f9faf9" d="M 474.5,396.5 C 476.07,395.441 477.403,395.941 478.5,398C 476.934,398.3 475.601,397.8 474.5,396.5 Z"/></g>
<g><path style="opacity:1" fill="#f9faf9" d="M 63.5,398.5 C 62.7109,398.217 62.0442,397.717 61.5,397C 62.816,396.472 63.4827,396.972 63.5,398.5 Z"/></g>
<g><path style="opacity:1" fill="#f9faf9" d="M 69.5,398.5 C 72.0009,398.511 72.1676,399.178 70,400.5C 69.5357,399.906 69.369,399.239 69.5,398.5 Z"/></g>
<g><path style="opacity:1" fill="#f9faf9" d="M 187.5,398.5 C 188.043,398.56 188.376,398.893 188.5,399.5C 186.926,400.631 185.259,400.798 183.5,400C 185.058,399.79 186.391,399.29 187.5,398.5 Z"/></g>
<g><path style="opacity:1" fill="#f9faf9" d="M 376.5,399.5 C 377.077,398.227 377.743,398.227 378.5,399.5C 378.03,400.463 377.363,400.463 376.5,399.5 Z"/></g>
<g><path style="opacity:1" fill="#000000" d="M 441.5,398.5 C 443.975,398.747 443.975,399.413 441.5,400.5C 440.537,400.03 440.537,399.363 441.5,398.5 Z"/></g>
<g><path style="opacity:1" fill="#000000" d="M 450.5,399.5 C 452.838,400.648 452.671,401.982 450,403.5C 449.5,403.167 449,402.833 448.5,402.5C 449.193,401.482 449.859,400.482 450.5,399.5 Z"/></g>
<g><path style="opacity:1" fill="#000000" d="M 436.5,400.5 C 439.001,400.511 439.168,401.178 437,402.5C 436.536,401.906 436.369,401.239 436.5,400.5 Z"/></g>
<g><path style="opacity:1" fill="#ececec" d="M 75.5,401.5 C 77.5638,401.762 78.8971,402.929 79.5,405C 77.0801,404.975 74.7467,404.309 72.5,403C 73.7375,402.768 74.7375,402.268 75.5,401.5 Z"/></g>
<g><path style="opacity:1" fill="#000000" d="M 264.5,402.5 C 265.478,402.811 266.145,403.478 266.5,404.5C 264.851,406.65 263.018,408.65 261,410.5C 259.812,409.437 259.312,408.103 259.5,406.5C 261.981,406.226 263.647,404.893 264.5,402.5 Z"/></g>
<g><path style="opacity:1" fill="#f9faf9" d="M 470.5,402.5 C 472.648,402.389 472.981,403.056 471.5,404.5C 472.729,405.281 474.062,405.781 475.5,406C 473.833,406.667 472.167,406.667 470.5,406C 469.316,404.855 469.316,403.688 470.5,402.5 Z"/></g>
<g><path style="opacity:1" fill="#f9faf9" d="M 465.5,404.5 C 467.337,404.639 467.67,405.306 466.5,406.5C 465.702,406.043 465.369,405.376 465.5,404.5 Z"/></g>
<g><path style="opacity:1" fill="#f9faf9" d="M 319.5,406.5 C 320.586,406.62 321.253,407.287 321.5,408.5C 321.167,409.167 320.833,409.833 320.5,410.5C 319.571,409.311 319.238,407.978 319.5,406.5 Z"/></g>
<g><path style="opacity:1" fill="#f9faf9" d="M 436.5,407.5 C 437.833,407.5 439.167,407.5 440.5,407.5C 440.38,408.586 439.713,409.253 438.5,409.5C 437.287,409.253 436.62,408.586 436.5,407.5 Z"/></g>
<g><path style="opacity:1" fill="#000000" d="M 277.5,409.5 C 278.713,410.497 278.546,411.497 277,412.5C 276.53,411.423 276.697,410.423 277.5,409.5 Z"/></g>
<g><path style="opacity:1" fill="#000000" d="M 291.5,409.5 C 292.306,410.868 293.306,412.201 294.5,413.5C 294,413.833 293.5,414.167 293,414.5C 291.829,413.66 290.662,412.827 289.5,412C 290.381,411.292 291.047,410.458 291.5,409.5 Z"/></g>
<g><path style="opacity:1" fill="#f9faf9" d="M 445.5,409.5 C 449.099,409.262 449.433,410.262 446.5,412.5C 445.614,411.675 445.281,410.675 445.5,409.5 Z"/></g>
<g><path style="opacity:1" fill="#f9faf9" d="M 434.5,410.5 C 436.337,410.639 436.67,411.306 435.5,412.5C 434.702,412.043 434.369,411.376 434.5,410.5 Z"/></g>
<g><path style="opacity:1" fill="#f9faf9" d="M 456.5,411.5 C 457.766,412.09 459.099,412.59 460.5,413C 457.911,414.314 455.244,414.981 452.5,415C 453.469,413.242 454.636,412.742 456,413.5C 456.464,412.906 456.631,412.239 456.5,411.5 Z"/></g>
<g><path style="opacity:1" fill="#000000" d="M 304.5,412.5 C 305.289,412.783 305.956,413.283 306.5,414C 305.184,414.528 304.517,414.028 304.5,412.5 Z"/></g>
<g><path style="opacity:1" fill="#f9faf9" d="M 459.5,415.5 C 460.289,415.783 460.956,416.283 461.5,417C 460.167,417.667 458.833,417.667 457.5,417C 458.416,416.722 459.082,416.222 459.5,415.5 Z"/></g>
<g><path style="opacity:1" fill="#f9faf9" d="M 262.5,416.5 C 263.289,416.783 263.956,417.283 264.5,418C 263.184,418.528 262.517,418.028 262.5,416.5 Z"/></g>
<g><path style="opacity:1" fill="#a5a5a5" d="M 176.5,418.5 C 172.163,419.745 171.83,419.412 175.5,417.5C 176.107,417.624 176.44,417.957 176.5,418.5 Z"/></g>
<g><path style="opacity:1" fill="#f9faf9" d="M 252.5,418.5 C 255.001,418.511 255.168,419.178 253,420.5C 252.536,419.906 252.369,419.239 252.5,418.5 Z"/></g>
<g><path style="opacity:1" fill="#f9faf9" d="M 291.5,418.5 C 294.001,418.511 294.168,419.178 292,420.5C 291.536,419.906 291.369,419.239 291.5,418.5 Z"/></g>
<g><path style="opacity:1" fill="#434343" d="M 177.5,426.5 C 185.833,426.5 194.167,426.5 202.5,426.5C 194.167,429.167 185.833,429.167 177.5,426.5 Z"/></g>
</svg>
